<?xml version="1.0" encoding="utf-8"?>
<!-- Generator: Adobe Illustrator 21.0.2, SVG Export Plug-In . SVG Version: 6.00 Build 0)  -->
<svg version="1.1" id="Layer_1" xmlns="http://www.w3.org/2000/svg" xmlns:xlink="http://www.w3.org/1999/xlink" x="0px" y="0px"
	 viewBox="0 0 1920 1080" style="enable-background:new 0 0 1920 1080;" xml:space="preserve">
<style type="text/css">
	.st0{fill:#FFFFFF;}
	.st1{fill:#F2F2F2;}
	.st2{fill:#DEDEDE;}
	.st3{fill:#4D4D4D;}
	.st4{fill:#FEFEFE;}
	.st5{fill:#4E4D4D;}
</style>
<g>
	<g>
		<path class="st0" d="M542.4,801.1c0-173.6,0-347.2,0-520.8c278.9,0,557.8,0,836.6,0c0,173.6,0,347.2,0,520.8
			C1100.2,801.1,821.3,801.1,542.4,801.1z"/>
		<path class="st1" d="M546.7,781c-0.1-1.7,0.9-2.9,2.2-3.8c2.4-1.6,4.3-3.8,6.4-5.7c2.6-2.3,5.2-4.7,7.8-7.1
			c3.8-3.5,7.8-6.9,11.6-10.3c1.7-1.5,3.3-3,4.9-4.5c2.4-2.2,4.9-4.4,7.3-6.6c4-3.8,8.2-7.3,12.3-11c1.7-1.5,3.4-3.1,5.1-4.7
			c2.4-2.3,4.8-4.4,7.3-6.6c3.9-3.4,7.5-7.1,11.6-10.3c2-1.6,3.8-3.6,5.8-5.3c4.2-3.6,8.1-7.5,12.2-11.1c5-4.4,10-8.9,14.9-13.5
			c2.2-2,4.5-3.8,7.6-4.2c1.5-0.2,1.5-0.4,0.8-1.6c-1.1-2-1.6-4.1-1.6-6.4c0-124.2,0-248.3,0-372.5c0-4.8,3.4-9.4,7.6-10.4
			c0.6-0.1,1.2-0.3,1.9-0.3c0.7,0,1.4,0,2.2,0c191.1,0,382.2,0,573.4,0c1.4,0,2.8,0,4.3,0.4c3.9,1.2,7.1,5.7,7.1,9.8
			c-0.1,124.6-0.1,249.1,0,373.7c0,2.1-0.6,3.9-1.7,5.7c-0.6,0.9-0.7,1.5,0.6,1.6c3.7,0.4,6.3,2.8,8.9,5.2
			c4.5,4.1,8.8,8.3,13.5,12.1c1.8,1.5,3.3,3.2,5.1,4.7c2.6,2.1,4.8,4.6,7.4,6.8c3.9,3.3,7.5,6.9,11.4,10.1c2,1.6,3.8,3.6,5.8,5.3
			c2.5,2.1,4.8,4.5,7.2,6.6c4,3.6,8,7,12,10.6c1.6,1.4,3.3,2.8,4.8,4.3c2.5,2.5,5.2,4.7,7.8,7.1c3.7,3.5,7.6,6.7,11.5,10.1
			c1.7,1.5,3.2,3.1,4.9,4.5c2.6,2.2,5,4.8,7.6,7c2.4,2,4.5,4.3,7,6.2c1.3,0.9,2.4,2.1,2.3,4c-0.7,1.6-2,2.4-3.6,3
			c-3.6,1.4-7.3,1.8-11,2.1c-1,0.1-1.9,0-2.9,0c-264.5,0-529,0-793.5,0c-4.7,0-9.3-0.5-13.7-2C548.9,783.5,547.4,782.7,546.7,781z"
			/>
		<path class="st2" d="M546.7,781c2.8,2.5,6.3,3.2,9.9,3.8c3.3,0.6,6.7,0.5,10,0.5c263.5,0,527.1,0,790.6,0c3.7,0,7.3-0.3,10.9-1
			c2.6-0.5,5.1-1.4,7.1-3.3c0,3.5-0.1,7,0,10.6c0.1,1.9-0.8,3-2.4,3.7c-2.5,1.1-5.2,1.6-7.8,2c-4.4,0.7-8.9,0.5-13.4,0.5
			c-243,0-486,0-729,0c-20.3,0-40.6,0-61-0.1c-4.1,0-8.2-0.7-12.1-2.3c-1.9-0.8-2.9-1.9-2.8-4.1C546.8,787.9,546.7,784.4,546.7,781z
			"/>
		<path class="st3" d="M961,287c94.9,0,189.9,0,284.8,0c0.9,0,1.8,0,2.6,0c4.9,0.2,8.8,3.9,9.1,8.8c0,0.7,0,1.4,0,2.2
			c0,122.9,0,245.7,0,368.6c0,2.1-0.2,4.1-1.2,6c-1.5,2.6-2.2,3-5.2,2.6c-4.1-0.5-8.3-0.8-12.4-0.8c-185.2,0-370.4,0-555.5,0
			c-4.3,0-8.6,0.2-12.9,0.8c-2,0.3-3.2-0.4-4.2-1.9c-0.8-1.3-1.4-2.7-1.5-4.2c-0.1-1-0.1-1.9-0.1-2.9c0-122.7,0-245.4,0-368.1
			c0-1,0-1.9,0.1-2.9c0.4-4.5,4.1-8,8.6-8.2c1-0.1,1.9,0,2.9,0C771.1,287,866,287,961,287z"/>
		<path class="st2" d="M1296.2,737.7c-1.6,1.5-3.8,1-5.6,1.5c-0.6,0.2-1.3,0-1.9,0c-218.4,0-436.9,0-655.3,0c-1.9,0-3.8-0.4-5.7-0.6
			c-0.6,0-1.3-0.3-1.6-0.9c-0.3-0.7,0.3-1.2,0.8-1.6c4-4,7.7-8.1,11.9-11.8c4.4-3.9,8.5-8.2,12.7-12.4c9.4-9.3,18.8-18.7,28.2-28.2
			c1.7-1.8,3.7-2.4,6.1-2.7c5.8-0.7,11.6-0.4,17.5-0.4c176.1,0,352.1,0,528.2-0.1c2.2,0,4.3,0.4,6.4,0.6c1.7,0.2,3.1,1.1,4.3,2.4
			c9.4,9.5,18.7,19.1,28.4,28.3c8.2,7.8,16,15.8,24.1,23.7C1295.2,736.2,1296,736.7,1296.2,737.7z"/>
		<path class="st2" d="M961.2,779.5c-33,0-66.1,0-99.1,0c-2.2,0-4.3-0.3-6.3-0.9c-1.7-0.5-1.9-0.9-1.4-2.6c1-3.8,2.1-7.7,3.2-11.5
			c1.6-5.6,3.3-11.1,4.9-16.8c0.4-1.4,1.1-2,2.4-2.3c2.6-0.6,5.2-0.9,7.8-0.9c58.9,0,117.7,0,176.6,0c2.7,0,5.4,0.3,8,1
			c1.1,0.3,1.8,0.9,2.2,2.2c2.5,9,5.2,18.1,7.8,27.1c0.9,3,0.5,3.7-2.7,4.3c-1.9,0.4-3.8,0.5-5.7,0.5
			C1026.4,779.5,993.8,779.5,961.2,779.5z"/>
		<path class="st4" d="M960.7,646.5c-89.4,0-178.9,0-268.3,0c-3.6,0-3.2,0.5-3.2-3.2c0-107.4,0-214.7,0-322.1c0-3.6-0.5-3.1,3-3.1
			c179.2,0,358.4,0,537.6,0c3.4,0,3-0.4,3,2.9c0,107.5,0,215,0,322.6c0,3.3,0.3,2.9-3,2.9C1140.1,646.5,1050.4,646.5,960.7,646.5z"
			/>
		<path class="st3" d="M961,735c-39.7,0-79.3,0-119,0c-1.1,0-2.2,0-3.4-0.1c-1.5-0.2-1.6-0.5-1.2-1.8c0.8-2.3,1.7-4.5,2.5-6.7
			c0.3-0.9,0.9-1.4,1.9-1.6c1.3-0.1,2.5-0.3,3.8-0.3c76.8,0,153.7,0,230.5,0c0.2,0,0.3,0,0.5,0c4.5,0.1,4.5,0.1,6,4.2
			c0.5,1.4,1.1,2.8,1.6,4.3c0.5,1.5,0.4,1.8-1.3,2c-1,0.1-2.1,0.1-3.1,0.1C1040.4,735,1000.7,735,961,735z"/>
		<path class="st3" d="M1184.6,712.7c1.3-0.9,2.5-0.8,3.6-0.8c22.2,0,44.4,0,66.7,0c2.8,0,5.1,0.7,7,3c1.5,1.9,3.3,3.5,5,5.2
			c0.7,0.8,0.6,1.2-0.5,1.4c-0.9,0.1-1.8,0.2-2.6,0.2c-22.7,0-45.4,0-68.1,0c-0.6,0-1.3-0.1-1.9-0.1c-1.9,0-3.3-0.7-4.4-2.4
			C1187.8,717,1186.2,714.9,1184.6,712.7z"/>
		<path class="st3" d="M737.3,712.7c-1.9,2.6-3.7,5.1-5.4,7.5c-0.6,0.8-1.4,1.1-2.3,1.2c-1.2,0.1-2.4,0.2-3.6,0.2
			c-22.5,0-45.1,0-67.6,0c-1,0-1.9,0-2.9-0.2c-0.9-0.1-1-0.7-0.4-1.3c2.3-2.4,4.5-4.7,6.8-7.1c0.5-0.5,1.1-0.7,1.7-0.8
			c1.5-0.4,3-0.4,4.5-0.4c21.5,0,43,0,64.5,0C734.2,711.9,735.7,711.7,737.3,712.7z"/>
		<path class="st3" d="M666.8,708.8c-0.1-0.9,0.5-1.2,0.9-1.6c1.6-1.7,3.4-3.4,5-5.2c1-1.1,2.3-1.7,3.8-1.7c1,0,2.1-0.1,3.1-0.1
			c13.6,0,27.2,0,40.7,0c1,0,2.1,0,3.1,0.1c1.3,0.1,1.4,0.5,0.7,1.5c-1.6,2-3.2,4-4.7,6c-0.5,0.7-1.2,1-2,1.1
			c-1.3,0.2-2.5,0.3-3.8,0.3c-14.4,0-28.8,0-43.1,0C669.1,709.3,667.9,709.3,666.8,708.8z"/>
		<path class="st3" d="M1182.2,690.1c0.9-0.9,1.9-0.8,2.8-0.8c16.4,0,32.7,0,49.1,0c2.1,0,3.9,0.5,5.3,2.2c1.1,1.4,2.4,2.5,3.6,3.8
			c0.5,0.5,1.3,0.9,1,1.7c-0.3,0.7-1.3,0.4-2,0.5c-0.5,0.1-1,0-1.4,0c-16.1,0-32.1,0-48.2,0c-0.5,0-1,0-1.4,0
			c-2.2,0.1-3.8-0.7-5-2.6C1184.9,693.3,1183.5,691.8,1182.2,690.1z"/>
		<path class="st3" d="M1255.5,708.6c-1.3,0.7-2.3,0.7-3.4,0.7c-13.3,0-26.5,0-39.8,0c-0.8,0-1.6-0.2-2.4-0.2
			c-1.5,0-2.5-0.7-3.4-1.9c-1.3-1.7-2.7-3.4-4-5.1c-1-1.3-0.8-1.7,0.9-1.8c0.8-0.1,1.6-0.1,2.4-0.1c12.3,0,24.6,0,36.9,0
			c0.6,0,1.1,0.1,1.7,0c2.2-0.1,4,0.7,5.5,2.4C1251.5,704.7,1253.5,706.5,1255.5,708.6z"/>
		<path class="st3" d="M805.2,735c-5.1,0-10.2,0-15.4,0c-0.7,0-1.4,0-2.2,0c-2.5-0.1-2.7-0.4-1.5-2.6c1.1-2,2.1-3.9,3.2-5.9
			c0.5-1,1.2-1.6,2.4-1.7c1.1-0.1,2.2-0.3,3.3-0.3c9.9,0,19.8,0,29.7,0c1.1,0,2.2,0.2,3.3,0.4c0.7,0.1,0.9,0.6,0.7,1.2
			c-1.1,2.6-2.1,5.2-3.2,7.7c-0.3,0.8-1.1,1-1.8,1c-1,0.1-2.1,0.2-3.1,0.2C815.5,735,810.3,735,805.2,735z"/>
		<path class="st3" d="M1116.8,735c-5.1,0-10.2,0-15.4,0c-0.8,0-1.6-0.1-2.4-0.1c-1.6,0-2.6-0.7-3.2-2.3c-0.7-2.1-1.7-4.1-2.5-6.2
			c-0.5-1.3-0.4-1.4,1-1.7c1-0.2,2.1-0.3,3.1-0.3c9.8,0,19.5,0,29.3,0c0.3,0,0.6,0,1,0c2.8-0.1,4.9,0.8,6,3.7
			c0.7,1.8,1.8,3.4,2.7,5.1c0.6,1.1,0.4,1.5-0.8,1.6c-0.9,0.1-1.8,0.1-2.6,0.1C1127.5,735,1122.2,735,1116.8,735z"/>
		<path class="st3" d="M641.5,734.5c0-0.7,0.4-1,0.7-1.3c2.3-2.3,4.6-4.7,6.9-7c0.8-0.8,1.7-1.4,2.9-1.5c1.3-0.1,2.5-0.3,3.8-0.3
			c8.4,0,16.8,0,25.2,0c1.4,0,2.9,0,4.2,0.5c0.3,0.6-0.1,0.9-0.4,1.3c-2,2.4-4.1,4.7-6.1,7.1c-0.8,1-1.9,1.5-3.1,1.5
			c-0.8,0-1.6,0.1-2.4,0.1c-9.5,0-19,0-28.5,0C643.6,735,642.5,735.1,641.5,734.5z"/>
		<path class="st3" d="M732.3,725.2c-2.2,3-4.2,5.8-6.2,8.6c-0.5,0.7-1.3,1-2.1,1.1c-0.9,0.1-1.8,0.2-2.6,0.2c-9.5,0-19,0-28.5,0
			c-1,0-2.4,0.4-2.9-0.5c-0.6-1.1,0.8-1.7,1.4-2.5c1.5-1.9,3.1-3.7,4.5-5.6c0.8-1.1,1.9-1.7,3.2-1.7c1.1,0,2.2-0.2,3.3-0.2
			c8.4,0,16.8,0,25.1,0C729.1,724.4,730.5,724.5,732.3,725.2z"/>
		<path class="st3" d="M1190.4,725c1.3-0.4,2.5-0.6,3.8-0.6c8.8,0,17.6,0,26.3,0c0.5,0,1,0.1,1.4,0.1c2.2,0,3.9,0.9,5.2,2.8
			c1.4,2,3.1,3.8,4.7,5.7c0.3,0.4,0.9,0.8,0.6,1.4c-0.3,0.6-1,0.4-1.5,0.5c-0.6,0.1-1.3,0.1-1.9,0.1c-9.2,0-18.4,0-27.5,0
			c-0.6,0-1.1,0-1.7,0c-1.9,0-3.3-0.6-4.4-2.3c-1.2-2-2.8-3.9-4.2-5.8C1190.9,726.3,1190.5,725.8,1190.4,725z"/>
		<path class="st3" d="M755.1,735c-5,0-9.9,0-14.9,0c-0.8,0-2,0.3-2.4-0.6c-0.5-0.9,0.6-1.5,1-2.2c1.3-1.9,2.6-3.8,3.9-5.8
			c0.7-1,1.5-1.6,2.7-1.7c1.2-0.1,2.4-0.3,3.6-0.3c8.3,0,16.6,0,24.9,0c1.2,0,2.4,0.1,3.6,0.3c0.9,0.2,1,0.6,0.6,1.4
			c-1.4,2.5-2.9,5-4.3,7.5c-0.7,1.2-1.7,1.3-2.9,1.3c-3,0-6.1,0.1-9.1,0.1C759.6,735,757.4,735,755.1,735z"/>
		<path class="st3" d="M1060.7,721.6c-4.7,0-9.4,0-14.1,0c-0.6,0-1.1,0-1.7,0c-3.5-0.1-3.5-0.1-4.3-3.5c-0.4-1.5-0.7-3-1.1-4.4
			c-0.4-1.1,0.1-1.5,1-1.6c0.8-0.1,1.6-0.2,2.4-0.2c10,0,20,0,29.9,0c0.6,0,1.1,0,1.7,0.1c1.5,0.2,2.6,0.7,3.1,2.4
			c0.5,1.9,1.3,3.8,2,5.6c0.3,0.8,0,1.3-0.8,1.4c-1,0.1-2.1,0.2-3.1,0.2C1070.7,721.6,1065.7,721.6,1060.7,721.6z"/>
		<path class="st3" d="M1010.7,721.6c-4.6,0-9.3,0-13.9,0c-0.6,0-1.3,0-1.9,0c-3.3-0.1-3.4-0.2-3.7-3.5c-0.1-1.4-0.3-2.7-0.4-4
			c-0.1-1.6,0-1.7,1.6-2c0.8-0.1,1.6-0.2,2.4-0.2c9.7,0,19.3,0,29,0c4.3,0,4.4,0.2,5.3,4.3c0.3,1.2,0.5,2.4,0.8,3.5
			c0.3,1.2-0.2,1.7-1.2,1.8c-1,0.1-2.1,0.2-3.1,0.2C1020.6,721.6,1015.6,721.6,1010.7,721.6z"/>
		<path class="st3" d="M911.2,721.6c-5.3,0-10.5,0-15.8,0c-3.6,0-3.6-0.1-2.8-3.7c0.3-1.3,0.6-2.6,0.9-4c0.2-1.2,0.9-1.8,2.1-1.9
			c0.9-0.1,1.7-0.2,2.6-0.2c9.7,0,19.3,0,29,0c4.2,0,4.5,0.3,4,4.5c-0.1,1-0.2,2.1-0.4,3.1c-0.2,1.6-0.4,1.8-2,2
			c-1,0.1-2.1,0.1-3.1,0.1C920.8,721.6,916,721.6,911.2,721.6z"/>
		<path class="st3" d="M861.2,721.6c-4.7,0-9.4,0-14.1,0c-0.7,0-1.4,0-2.2,0c-2.8-0.2-2.9-0.3-1.9-3c0.6-1.6,1.3-3.1,1.8-4.7
			c0.4-1.2,1.1-1.7,2.2-1.8c1-0.1,1.9-0.2,2.9-0.2c9.7,0,19.3,0,29,0c4.2,0,4.2,0.1,3.2,4.1c-0.3,1.2-0.6,2.3-0.9,3.5
			c-0.3,1.3-1,1.9-2.3,2c-1,0-2.1,0.1-3.1,0.1C870.9,721.6,866.1,721.6,861.2,721.6z"/>
		<path class="st3" d="M785.9,712.7c-1.5,2.6-3,5.2-4.5,7.8c-0.4,0.7-1.2,0.8-1.9,0.9c-1,0.1-2.1,0.2-3.1,0.2c-9.9,0-19.8,0-29.7,0
			c-1,0-1.9-0.1-2.9-0.2c-0.8-0.1-1.2-0.5-0.7-1.3c1.6-2.4,3.3-4.7,5-7.1c0.3-0.5,0.8-0.7,1.4-0.8c1-0.2,2-0.4,3.1-0.4
			c10,0,20,0,30,0C783.6,711.9,784.8,711.8,785.9,712.7z"/>
		<path class="st3" d="M1087.7,712.7c1.3-0.8,2.5-0.8,3.7-0.8c9.8,0,19.6,0,29.5,0c0.4,0,0.8,0,1.2,0c2,0.1,3.5,0.6,4.3,2.7
			c0.7,1.8,1.9,3.5,2.8,5.3c0.6,1.1,0.4,1.4-0.8,1.6c-0.9,0.1-1.8,0.2-2.6,0.2c-10,0-20,0-30,0c-0.2,0-0.3,0-0.5,0
			c-3.9-0.1-3.9-0.1-5.4-3.7C1089.1,716.2,1088.5,714.5,1087.7,712.7z"/>
		<path class="st3" d="M1179.4,720.9c-1.4,0.8-2.5,0.7-3.6,0.7c-10.2,0-20.3,0-30.5,0c-0.3,0-0.6,0-1,0c-2.3,0.1-3.9-0.7-4.9-3
			c-0.9-2.1-2.2-4-3.4-6c1.2-0.8,2.3-0.8,3.4-0.8c9.9,0,19.8,0,29.7,0c0.6,0,1.3,0,1.9,0.1c1.5,0.2,2.7,0.7,3.5,2.1
			C1176.1,716.4,1177.7,718.5,1179.4,720.9z"/>
		<path class="st3" d="M811.4,721.6c-4.8,0-9.6,0-14.4,0c-0.7,0-1.4,0-2.2,0c-2.5-0.2-2.6-0.3-1.4-2.6c0.9-1.7,1.9-3.3,2.7-5.1
			c0.5-1.2,1.4-1.7,2.6-1.8c1-0.1,1.9-0.2,2.9-0.2c9.6,0,19.2,0,28.7,0c4.3,0,4.4,0.1,2.8,3.9c-0.5,1.2-1.1,2.3-1.4,3.5
			c-0.5,1.5-1.5,2.2-3,2.2c-1,0-1.9,0.1-2.9,0.1C821,721.6,816.2,721.6,811.4,721.6z"/>
		<path class="st3" d="M961,721.6c-5.2,0-10.4,0-15.6,0c-3.7,0-3.8-0.2-3.5-3.8c0.1-1.4,0.3-2.9,0.3-4.3c0-0.8,0.4-1.1,1.1-1.3
			c0.9-0.3,1.9-0.3,2.8-0.3c9.9,0,19.8,0,29.7,0c0.2,0,0.5,0,0.7,0c2.9,0.2,3,0.2,3.3,3.1c0.1,1.5,0.2,3,0.3,4.5
			c0,1.6-0.1,1.8-1.7,1.9c-0.9,0.1-1.9,0.1-2.9,0.1C970.7,721.6,965.8,721.6,961,721.6z"/>
		<path class="st3" d="M722.9,690c-1.9,2.2-3.6,4.4-5.4,6.5c-0.5,0.6-1.3,0.9-2.1,0.9c-1,0.1-1.9,0.1-2.9,0.2c-10.4,0-20.8,0-31.2,0
			c-1.1,0-2.2,0-3.2-0.3c-0.4-0.8,0.3-1.1,0.6-1.5c1.3-1.4,2.8-2.7,4-4.2c1.5-1.8,3.3-2.4,5.5-2.4c4.2,0,8.3,0,12.5,0
			c6.3,0,12.6,0,19,0C720.6,689.3,721.6,689.1,722.9,690z"/>
		<path class="st3" d="M729.4,708.6c1.3-1.7,2.4-3.2,3.6-4.7c2.8-3.6,2.8-3.7,7.3-3.7c9.2,0,18.4,0,27.5,0c1.1,0,2.7-0.5,3.3,0.6
			c0.4,0.9-0.9,1.9-1.5,2.8c-0.7,1.2-1.5,2.2-2.2,3.4c-0.7,1.3-1.8,1.9-3.3,1.9c-0.8,0-1.6,0.1-2.4,0.1c-9.4,0-18.8,0-28.3,0
			C732.3,709.1,731,709.2,729.4,708.6z"/>
		<path class="st3" d="M795.7,709.1c-5.2,0-10.4,0.1-15.6,0c-2.9,0-3-0.3-1.6-2.7c0.9-1.5,1.9-3,2.7-4.5c0.6-1,1.4-1.5,2.5-1.5
			c0.8,0,1.6-0.1,2.4-0.1c9.4,0,18.9,0,28.3,0c3.9,0,3.9,0.1,2.2,3.5c-0.5,1.1-1.2,2.1-1.6,3.2c-0.5,1.5-1.6,2.1-3.1,2
			c-2.1,0-4.2,0.1-6.2,0.1C802.4,709.1,799,709.1,795.7,709.1C795.7,709.1,795.7,709.1,795.7,709.1z"/>
		<path class="st3" d="M1083.1,709.1c-4.6,0-9.1,0-13.7,0c-1.1,0-2.2-0.1-3.4-0.1c-1.2,0-1.9-0.6-2.3-1.7c-0.5-1.8-1.2-3.5-1.7-5.2
			c-0.4-1.3-0.2-1.5,1.1-1.7c0.8-0.1,1.6-0.1,2.4-0.1c9.3,0,18.6,0,27.8,0c4.2,0,4.2,0,5.9,3.8c0.5,1,1,2,1.4,3.1
			c0.7,1.7,0.6,1.8-1.3,2c-0.9,0.1-1.8,0.1-2.6,0.1C1092.2,709.1,1087.7,709.1,1083.1,709.1z"/>
		<path class="st3" d="M1035,709.1c-4.5,0-9,0-13.4,0c-1,0-2.1,0-3.1-0.1c-1.8-0.2-2-0.3-2.3-2.1c-0.3-1.5-0.6-3-0.9-4.5
			c-0.3-1.7-0.1-2,1.6-2.1c0.8-0.1,1.6-0.1,2.4-0.1c9.1,0,18.2,0,27.4,0c0.2,0,0.5,0,0.7,0c3.7,0.1,3.7,0.1,4.8,3.6
			c0.4,1.3,0.8,2.6,1.2,3.9c0.2,0.7-0.1,1.1-0.7,1.2c-1.1,0.1-2.2,0.2-3.3,0.2C1044.5,709.1,1039.8,709.1,1035,709.1z"/>
		<path class="st3" d="M891.5,709.1c-4.6,0-9.3,0-13.9,0c-0.7,0-1.4,0-2.2-0.1c-2.4-0.2-2.5-0.3-1.8-2.5c0.4-1.4,0.8-2.8,1.2-4.1
			c0.6-1.9,0.7-1.9,2.7-2.1c0.6,0,1.3-0.1,1.9-0.1c9.4,0,18.9-0.1,28.3,0c4.8,0,3.6,0.2,3.1,3.8c0,0.4-0.2,0.8-0.2,1.2
			c-0.6,4-0.2,3.7-4.5,3.8C901.2,709.2,896.4,709.1,891.5,709.1z"/>
		<path class="st3" d="M843.6,709.1c-5.1,0-10.2,0.1-15.3,0c-3.3,0-3.3-0.2-1.9-3.2c0.6-1.3,1.2-2.6,1.7-3.9
			c0.4-1.1,1.2-1.6,2.4-1.6c0.7,0,1.4-0.1,2.2-0.1c9.5,0,19,0,28.5,0c4.7,0,3.6,0.5,2.6,3.7c-0.3,1.1-0.8,2.1-1,3.2
			c-0.3,1.3-1.1,1.9-2.4,1.9c-1.1,0-2.2,0.1-3.4,0.1C852.5,709.1,848.1,709.1,843.6,709.1C843.6,709.1,843.6,709.1,843.6,709.1z"/>
		<path class="st3" d="M1130.6,709.1c-4.5,0-8.9,0-13.4,0c-1.1,0-2.2-0.1-3.3-0.1c-1-0.1-1.8-0.5-2.3-1.5c-0.9-1.9-1.9-3.7-2.8-5.6
			c-0.6-1.2-0.4-1.5,1-1.6c0.8-0.1,1.6-0.1,2.4-0.1c9.2,0,18.4,0,27.5,0c0.3,0,0.6,0,1,0c2.5-0.3,4.2,0.7,5.3,3.1
			c0.7,1.4,1.7,2.7,2.5,4.1c0.7,1.2,0.5,1.5-0.9,1.6c-0.9,0.1-1.9,0.1-2.9,0.1C1140,709.1,1135.3,709.1,1130.6,709.1z"/>
		<path class="st3" d="M1196.9,708.6c-1.5,0.5-2.6,0.5-3.7,0.5c-9.6,0-19.2,0-28.7,0c-0.3,0-0.6,0-1,0c-2.4,0.1-4.1-0.7-5.3-2.9
			c-0.8-1.6-2-3.1-3-4.6c-0.5-0.8-0.2-1.2,0.6-1.3c0.9-0.1,1.8-0.1,2.6-0.1c9.2,0,18.4,0,27.5,0c0.7,0,1.4,0.1,2.2,0.1
			c1.6-0.1,2.7,0.5,3.7,1.8C1193.4,704.3,1195.1,706.3,1196.9,708.6z"/>
		<path class="st3" d="M939.3,709.1c-5.1,0-10.2,0.1-15.3,0c-3.1,0-3.1-0.1-2.8-3.3c0.1-1.3,0.4-2.5,0.5-3.8
			c0.1-1.1,0.6-1.6,1.7-1.7c0.9-0.1,1.8-0.1,2.6-0.1c9.3,0,18.5,0,27.8,0c0.3,0,0.6,0,1,0c3.8,0.1,3.4,0.7,3.1,3.4
			c-0.2,1.3-0.1,2.6-0.1,3.8c0,1-0.5,1.5-1.4,1.5c-1.4,0-2.7,0.1-4.1,0.1C947.9,709.1,943.6,709.1,939.3,709.1
			C939.3,709.1,939.3,709.1,939.3,709.1z"/>
		<path class="st3" d="M987.1,709.1c-4.6,0-9.1,0-13.7,0c-1,0-2.1-0.1-3.1-0.1c-1.1,0-1.8-0.5-1.8-1.7c0-1.8-0.1-3.5-0.2-5.3
			c-0.1-1.1,0.5-1.6,1.6-1.6c1,0,1.9-0.1,2.9-0.1c9,0,18.1,0,27.1,0c4.4,0,4.4,0,5.1,4.4c0.1,0.9,0.1,1.8,0.4,2.6
			c0.3,1.1-0.1,1.7-1.2,1.8c-1,0.1-2.1,0.1-3.1,0.1C996.4,709.1,991.7,709.1,987.1,709.1z"/>
		<path class="st3" d="M929.3,697.6c-4.4,0-8.8,0-13.2,0c-0.7,0-1.4,0-2.2,0c-2.4-0.1-2.4-0.2-2-2.5c0.2-1.3,0.5-2.5,0.6-3.8
			c0.1-1.2,0.7-1.7,1.8-1.9c0.7-0.1,1.4-0.1,2.2-0.1c9.2,0,18.4,0,27.6,0c0.5,0,1,0,1.4,0c1.9,0.2,2.1,0.3,2.1,2.4
			c0,1.3-0.1,2.6-0.1,3.8c0,1.3-0.5,1.9-1.8,2c-0.9,0-1.8,0.1-2.6,0.1C938.4,697.6,933.8,697.6,929.3,697.6z"/>
		<path class="st3" d="M1137.2,690.1c0.8-0.9,1.7-0.8,2.6-0.8c9.6,0,19.2,0,28.8,0c2,0,3.7,0.5,4.8,2.4c0.9,1.5,2.1,2.8,3.1,4.3
			c0.8,1.1,0.6,1.4-0.6,1.5c-0.8,0.1-1.6,0.1-2.4,0.1c-9.1,0-18.2,0-27.4,0c-0.5,0-1,0-1.4,0c-2.1,0.1-3.6-0.7-4.6-2.7
			C1139.3,693.2,1138.1,691.6,1137.2,690.1z"/>
		<path class="st3" d="M1021.2,697.6c-4.5,0-8.9,0-13.4,0c-1,0-1.9-0.1-2.9-0.1c-1,0-1.4-0.6-1.6-1.5c-0.2-1.7-0.4-3.3-0.7-5
			c-0.2-1,0.3-1.5,1.3-1.6c0.7-0.1,1.4-0.1,2.2-0.1c9.2,0,18.4,0,27.6,0c0.3,0,0.6,0,1,0c2.4,0.1,2.6,0.3,3.3,2.6
			c0.4,1.4,0.7,2.8,1.1,4.2c0.3,1-0.1,1.3-1,1.4c-1,0.1-1.9,0.1-2.9,0.1C1030.5,697.6,1025.8,697.6,1021.2,697.6z"/>
		<path class="st3" d="M883.2,697.6c-4.8,0-9.6,0.1-14.4,0c-4.3-0.1-3.3-0.5-2.4-3.2c0.2-0.7,0.4-1.4,0.7-2c1-2.9,1-3,4.3-3
			c4.6,0,9.1,0,13.7,0s9.1,0,13.7,0c0.6,0,1.1,0,1.7,0c2.2,0.1,2.4,0.4,2,2.6c-0.3,1.3-0.6,2.6-0.8,4c-0.2,1.1-0.8,1.5-1.8,1.6
			c-1,0-1.9,0.1-2.9,0.1C892.3,697.6,887.8,697.6,883.2,697.6z"/>
		<path class="st3" d="M1047.5,690.1c0.9-0.8,1.8-0.8,2.8-0.8c9.6,0,19.2,0,28.8,0c2.2,0,3.6,0.7,4.2,2.9c0.4,1.4,1.1,2.7,1.6,4
			c0.4,0.8,0.1,1.2-0.8,1.3c-1,0.1-1.9,0.1-2.9,0.1c-9.1,0-18.2,0-27.3,0c-4.2,0-4.2,0-5.4-3.9
			C1048.2,692.5,1047.8,691.2,1047.5,690.1z"/>
		<path class="st3" d="M975.3,697.6c-4.3,0-8.6,0-12.9,0c-0.6,0-1.3,0-1.9,0c-2.9-0.1-2.9-0.1-2.9-3c0-1,0-2.1,0-3.1
			c0-1.7,0.2-1.9,1.9-2.1c0.6-0.1,1.1-0.1,1.7-0.1c9.2,0,18.4,0,27.6,0c0.4,0,0.8,0,1.2,0c2.3,0.1,2.5,0.3,2.8,2.6
			c0.1,1.3,0.3,2.5,0.5,3.8c0.2,1.3-0.4,1.8-1.6,1.8c-0.9,0-1.8,0.1-2.6,0.1C984.4,697.6,979.8,697.6,975.3,697.6z"/>
		<path class="st3" d="M1113.5,697.6c-4.6,0-9.3,0-13.9,0c-0.9,0-1.8-0.1-2.6-0.1c-0.8,0-1.4-0.4-1.7-1.1c-0.8-1.8-1.7-3.6-2.5-5.4
			c-0.4-0.9-0.1-1.4,0.8-1.5c0.7-0.1,1.4-0.1,2.1-0.1c9.2,0,18.4,0,27.5,0c0.6,0,1.1,0,1.7,0c1.4,0.1,2.4,0.5,3.1,1.9
			c0.7,1.5,1.7,2.9,2.5,4.4c0.9,1.6,0.8,1.8-1.1,1.9c-1.8,0.1-3.5,0.1-5.3,0.1C1120.5,697.6,1117,697.6,1113.5,697.6z"/>
		<path class="st3" d="M837.4,697.6c-4.6,0-9.1,0-13.7,0c-0.7,0-1.4,0-2.2,0c-2.2-0.2-2.3-0.3-1.4-2.2c0.6-1.4,1.4-2.7,1.9-4.1
			c0.5-1.4,1.5-1.8,2.7-1.9c0.6-0.1,1.3-0.1,1.9-0.1c9.1,0,18.2,0,27.3,0c3.8,0,3.8,0.1,2.6,3.5c-0.4,1-0.9,2.1-1.2,3.1
			c-0.3,1.1-1,1.6-2.1,1.6c-1,0-1.9,0.1-2.9,0.1C846.1,697.6,841.8,697.6,837.4,697.6z"/>
		<path class="st3" d="M727.4,697.1c1.9-2.4,3.7-4.7,5.5-6.9c0.4-0.5,1-0.6,1.5-0.7c0.9-0.1,1.7-0.2,2.6-0.2c9.3,0,18.5,0,27.8,0
			c1,0,2.1-0.2,3.1,0.8c-1.5,2.1-2.9,4.3-4.4,6.5c-0.4,0.6-1.1,0.9-1.9,0.9c-1,0.1-2.1,0.1-3.1,0.1c-9.1,0-18.2,0-27.3,0
			C730.1,697.6,729,697.7,727.4,697.1z"/>
		<path class="st3" d="M791,697.6c-4.6,0-9.3,0-13.9,0c-0.6,0-1.3,0-1.9-0.1c-1.7-0.2-1.8-0.4-0.9-1.9c1-1.6,2-3.1,2.9-4.7
			c0.6-1,1.4-1.5,2.5-1.6c0.7-0.1,1.4-0.1,2.2-0.1c9.2,0,18.4,0,27.6,0c3.5,0,3.6,0.1,2,3.2c-0.5,1-1.2,1.9-1.5,3
			c-0.6,1.6-1.7,2.2-3.3,2.1C801.4,697.5,796.2,697.6,791,697.6C791,697.6,791,697.6,791,697.6z"/>
		<path class="st5" d="M1184.9,734.3c-0.7,0.8-1.6,0.7-2.4,0.7c-10.1,0-20.3-0.1-30.4,0.1c-2.8,0-4.2-1.4-5.2-3.7
			c-0.3-0.7-0.2-1.2,0.6-1.4c0.9-0.2,1.7-0.3,2.6-0.3c9.3,0,18.7,0.1,28,0C1181.6,729.6,1183.8,731,1184.9,734.3z"/>
		<path class="st5" d="M1280.6,734.5c-1.2,0.6-2.2,0.5-3.3,0.5c-9.3,0-18.6-0.1-27.8,0.1c-3.8,0.1-6.2-1.4-8-4.7
			c0.9-0.6,1.8-0.7,2.9-0.7c9.4,0,18.9,0.1,28.3,0C1276.3,729.6,1278.5,731.6,1280.6,734.5z"/>
		<path class="st5" d="M687.9,686.8c1.5-2.4,3.1-3.8,5.7-3.7c9.2,0,18.4,0,27.6,0c0.7,0,1.5-0.1,2,0.6c-1,2-2.4,3.4-5,3.3
			c-9.5-0.1-19,0-28.6,0C689.2,687,688.8,686.9,687.9,686.8z"/>
		<path class="st5" d="M1191.4,686.6c-1.2,0.4-2.1,0.4-3.1,0.4c-8.8,0-17.6-0.1-26.4,0c-2.6,0-4.5-0.6-5.4-3.3
			c0.3-0.7,1-0.6,1.6-0.6c9.5,0,19,0,28.6,0C1189.2,683,1190.3,684.5,1191.4,686.6z"/>
		<path class="st5" d="M960.9,687c-4.2,0-8.3,0-12.5,0c-0.7,0-1.4,0-2.2,0c-0.9,0-1.7-0.1-1.7-1.4c0-1.7,0.2-2.2,1.6-2.4
			c0.7-0.1,1.4-0.1,2.2-0.1c8.5,0,17.1,0,25.6,0c0.6,0,1.3,0,1.9,0.1c1.6,0.2,2.3,1.3,1.9,2.9c-0.1,0.5-0.5,0.8-1,0.9
			c-0.9,0.1-1.8,0.2-2.6,0.2C969.7,687,965.3,687,960.9,687z"/>
		<path class="st5" d="M875.3,687c-4.2,0-8.3,0-12.5,0c-0.6,0-1.1,0.1-1.7,0c-0.7-0.1-1.7,0.3-2-0.8c-0.3-0.9,0.9-2.8,1.9-3
			c0.7-0.1,1.4-0.2,2.1-0.2c8.9,0,17.7,0,26.6,0c0.3,0,0.6,0,1,0c0.8,0.1,1.9-0.2,2,1.1c0.1,1.5-0.7,2.5-2.1,2.7
			c-0.9,0.1-1.8,0.1-2.6,0.1C883.8,687,879.5,687,875.3,687z"/>
		<path class="st5" d="M730.7,686.6c1.2-2.7,3.1-3.7,5.8-3.6c8.8,0.1,17.6,0,26.4,0.1c0.9,0,2-0.3,2.4,0.6c0.4,1-0.8,1.6-1.2,2.4
			c-0.3,0.6-1,0.8-1.6,0.9c-0.9,0.1-1.8,0.1-2.6,0.1c-8.7,0-17.4,0-26.2,0C732.7,687,731.8,687.1,730.7,686.6z"/>
		<path class="st5" d="M1234.1,686.5c-1,0.6-1.8,0.5-2.6,0.5c-9,0-18,0-27.1,0c-2.2,0-3.9-0.7-5-2.5c-0.6-0.9-0.5-1.2,0.6-1.4
			c0.5-0.1,1-0.1,1.4-0.1c8.9,0,17.9,0.1,26.8,0C1231,683,1232.7,684.2,1234.1,686.5z"/>
		<path class="st5" d="M1114.3,683.6c0.7-0.7,1.6-0.6,2.5-0.6c9,0,18.1,0,27.1,0c2.2,0,3.7,0.8,4.5,2.8c0.2,0.6,0.1,0.9-0.5,1
			c-0.6,0.1-1.3,0.1-1.9,0.1c-9.1,0-18.2,0-27.3,0C1115.6,687,1115.4,686.7,1114.3,683.6z"/>
		<path class="st5" d="M1003.8,687c-4.8,0-9.6,0-14.4,0c-2,0-2.2-0.3-2.4-2.2c-0.1-1.1,0.4-1.5,1.3-1.6c0.7-0.1,1.4-0.1,2.2-0.1
			c8.6,0,17.3,0,25.9,0c0.8,0,1.6,0,2.4,0.2c0.6,0.1,1.1,0.4,1.3,1.2c0.6,2,0.4,2.5-1.7,2.6C1013.5,687,1008.7,687,1003.8,687
			C1003.8,687,1003.8,687,1003.8,687z"/>
		<path class="st5" d="M918.2,687c-4.2,0-8.5,0-12.7,0c-0.6,0-1.3,0-1.9,0c-0.7-0.1-1.7,0.1-1.7-1.1c0-1.4,0.4-2.4,1.5-2.6
			c0.7-0.2,1.4-0.2,2.1-0.2c8.9,0,17.7,0,26.6,0c0.4,0,0.8,0,1.2,0c1,0.1,1.9,0.3,1.8,1.7c-0.1,1.7-0.3,2-1.8,2.2
			c-1.1,0.1-2.2,0.1-3.3,0.1C926,687,922.1,687,918.2,687z"/>
		<path class="st5" d="M832.5,687c-4.6,0-9.3,0-13.9,0c-2.5,0-2.7-0.5-1.5-2.6c0.4-0.7,0.9-1.1,1.7-1.2c0.9-0.1,1.7-0.2,2.6-0.2
			c8.5,0,17.1,0,25.6,0c0.3,0,0.6,0,1,0c0.8,0.1,1.9-0.2,2.2,0.8c0.3,1-1.1,2.8-2.2,3c-0.9,0.1-1.8,0.1-2.6,0.1
			C841.2,687,836.9,687,832.5,687C832.5,687,832.5,687,832.5,687z"/>
		<path class="st5" d="M789.8,687c-4.6,0-9.3,0-13.9,0c-0.7,0-1.8,0.3-2.1-0.6c-0.3-0.7,0.5-1.3,0.9-1.9c0.4-0.9,1.2-1.2,2.1-1.4
			c0.8-0.1,1.6-0.1,2.4-0.1c8.5,0,17.1,0,25.6,0c0.2,0,0.5,0,0.7,0c0.8,0.1,1.9-0.3,2.3,0.7c0.3,0.6-1.2,2.8-2,3
			c-0.9,0.2-1.9,0.2-2.9,0.2C798.6,687,794.2,687,789.8,687z"/>
		<path class="st5" d="M1089.4,687c-4.8,0-9.6,0-14.4,0c-2.1,0-2.4-0.4-3-2.3c-0.3-1,0.1-1.3,0.9-1.5c0.6-0.1,1.1-0.1,1.7-0.1
			c8.9,0,17.9,0,26.8,0c3.4,0,3.2,0.7,4.2,2.7c0.3,0.7,0.1,1.1-0.6,1.2c-0.8,0.1-1.6,0.1-2.4,0.1C1098.2,687,1093.8,687,1089.4,687
			C1089.4,687,1089.4,687,1089.4,687z"/>
		<path class="st5" d="M1046.7,687c-4.8,0-9.6,0-14.4,0c-2,0-2.4-0.5-2.7-2.3c-0.1-0.9,0.2-1.4,1.1-1.5c0.6-0.1,1.3-0.1,1.9-0.1
			c8.7,0,17.4,0,26.2,0c0.6,0,1.3,0,1.9,0.1c1.5,0.2,2.4,1.3,2.4,2.8c0,0.6-0.4,0.9-0.9,0.9c-0.8,0.1-1.6,0.1-2.4,0.1
			C1055.5,687,1051.1,687,1046.7,687C1046.7,687,1046.7,687,1046.7,687z"/>
	</g>
</g>
</svg>
