<?xml version="1.0" encoding="utf-8"?>
<!-- Generator: Adobe Illustrator 21.0.2, SVG Export Plug-In . SVG Version: 6.00 Build 0)  -->
<svg version="1.1" xmlns="http://www.w3.org/2000/svg" xmlns:xlink="http://www.w3.org/1999/xlink" x="0px" y="0px"
	 viewBox="0 0 1280 800" style="enable-background:new 0 0 1280 800;" xml:space="preserve">
<style type="text/css">
	.st0{fill:#F2F2F2;}
	.st1{fill:#4D4D4D;}
	.st2{fill:#DEDEDE;}
</style>
<g id="Layer_2">
</g>
<g id="Layer_1">
	<g>
		<g>
			<g>
				<g>
					<g>
						<g>
							<g>
								<path class="st0" d="M952.8,560.7l-575.8,0c-5.6,0-10.2-4.6-10.2-10.2V176.6c0-5.6,4.6-10.2,10.2-10.2l575.8,0
									c5.6,0,10.2,4.6,10.2,10.2l0,373.9C963,556.2,958.5,560.7,952.8,560.7z"/>
							</g>
						</g>
						<g>
							<g>
								<path class="st1" d="M368.5,549.4V177.7c0-5.2,4.2-9.4,9.4-9.4l574.2,0c5.2,0,9.4,4.2,9.4,9.4v371.7c0,5.2-4.2,9.4-9.4,9.4
									l-574.2,0C372.7,558.8,368.5,554.6,368.5,549.4z"/>
							</g>
						</g>
						<g>
							<g>
								<rect x="393.2" y="199.5" class="st0" width="543.5" height="328.2"/>
							</g>
						</g>
					</g>
				</g>
				<g>
					<g>
						<g>
							<path class="st0" d="M1057.9,666.9l-786,0c-15.5,0-24.5-3.3-20.1-7.3l110.8-99.9c2.3-2.1,13.1-3.8,24.1-3.8l556.4,0
								c11,0,21.8,1.7,24.1,3.8l110.8,99.9C1082.4,663.6,1073.4,666.9,1057.9,666.9z"/>
						</g>
					</g>
					<path class="st2" d="M1079.1,661.6c0,3-8.4,5.3-21.2,5.3l-786,0c-12.6,0-20.8-2.2-21.2-5.1h0v8.9l0,3.4c0.1,3,8.4,5.2,21.2,5.2
						l786,0c12.8,0,21.1-2.2,21.2-5.2l0-3.4L1079.1,661.6L1079.1,661.6z"/>
					<g>
						<g>
							<path class="st2" d="M993.6,620.4l-657.4,0c-4.5,0-7.4-0.8-6.3-1.9l55.6-55c0.7-0.7,4.4-1.3,8.1-1.3h542.7
								c3.8,0,7.4,0.6,8.1,1.3l55.6,55C1001,619.6,998.2,620.4,993.6,620.4z"/>
						</g>
					</g>
					<g>
						<g>
							<path class="st2" d="M763.4,660.8l-196.9,0c-5.1,0-8.9-1.1-8.5-2.4l8.7-30.3c0.3-1.1,4.3-2,8.9-2l178.6,0
								c4.6,0,8.6,0.9,8.9,2l8.7,30.3C772.3,659.8,768.5,660.8,763.4,660.8z"/>
						</g>
					</g>
					<g>
						<g>
							<g>
								<path class="st1" d="M404.4,593.3h-33.6c-2.1,0-4.2,0.4-4.7,1l-7.5,7.7c-0.5,0.6,0.8,1,2.9,1h34.7h34.7c2.2,0,4.2-0.5,4.6-1
									l5.6-7.7c0.4-0.5-1-1-3.1-1H404.4z"/>
							</g>
						</g>
						<g>
							<g>
								<path class="st1" d="M480.8,603H450c-2.2,0-3.6-0.4-3.3-0.9l5.6-8c0.3-0.4,2.2-0.8,4.3-0.8h29.9c2.1,0,3.6,0.4,3.3,0.8
									l-4.6,8C484.9,602.6,482.9,603,480.8,603z"/>
							</g>
						</g>
						<g>
							<g>
								<path class="st1" d="M530.7,603h-30.8c-2.2,0-3.7-0.4-3.4-0.9l4.3-8c0.2-0.4,2.1-0.8,4.2-0.8h29.9c2.1,0,3.6,0.4,3.4,0.8
									l-3.3,8C534.7,602.6,532.8,603,530.7,603z"/>
							</g>
						</g>
						<g>
							<g>
								<path class="st1" d="M580.6,603h-30.8c-2.2,0-3.8-0.4-3.6-0.9l3-8c0.2-0.4,2-0.8,4.1-0.8h29.9c2.1,0,3.7,0.4,3.6,0.8l-2,8
									C584.5,602.6,582.7,603,580.6,603z"/>
							</g>
						</g>
						<g>
							<g>
								<path class="st1" d="M680.3,603h-30.8c-2.2,0-3.9-0.4-3.8-0.9l0.5-8c0-0.4,1.7-0.8,3.8-0.8l29.9,0c2.1,0,3.8,0.4,3.8,0.8
									l0.5,8C684.2,602.6,682.5,603,680.3,603z"/>
							</g>
						</g>
						<g>
							<g>
								<path class="st1" d="M630.4,603h-30.8c-2.2,0-3.8-0.4-3.7-0.9l1.8-8c0.1-0.4,1.9-0.8,4-0.8h29.9c2.1,0,3.7,0.4,3.7,0.8
									l-0.8,8C634.4,602.6,632.6,603,630.4,603z"/>
							</g>
						</g>
						<g>
							<g>
								<path class="st1" d="M730.2,603h-30.8c-2.2,0-3.9-0.4-4-0.9l-0.8-8c0-0.4,1.6-0.8,3.7-0.8h29.9c2.1,0,3.9,0.4,4,0.8l1.8,8
									C734,602.6,732.4,603,730.2,603z"/>
							</g>
						</g>
						<g>
							<g>
								<path class="st1" d="M780.1,603h-30.8c-2.2,0-4-0.4-4.1-0.9l-2-8c-0.1-0.4,1.5-0.8,3.6-0.8h29.9c2.1,0,3.9,0.4,4.1,0.8l3,8
									C783.9,602.6,782.3,603,780.1,603z"/>
							</g>
						</g>
						<g>
							<g>
								<path class="st1" d="M830,603l-30.8,0c-2.2,0-4.1-0.4-4.2-0.9l-3.3-8c-0.2-0.4,1.4-0.8,3.4-0.8h29.9c2.1,0,4,0.4,4.2,0.8
									l4.3,8C833.7,602.6,832.2,603,830,603z"/>
							</g>
						</g>
						<g>
							<g>
								<path class="st1" d="M879.9,603h-30.8c-2.2,0-4.1-0.4-4.4-0.9l-4.6-8c-0.3-0.4,1.2-0.8,3.3-0.8h29.9c2.1,0,4,0.4,4.3,0.8
									l5.6,8C883.5,602.6,882,603,879.9,603z"/>
							</g>
						</g>
						<g>
							<g>
								<path class="st1" d="M425,616.4h-28.1c-2.2,0-3.7-0.4-3.3-0.9l7.2-8.7c0.4-0.5,2.5-0.9,4.7-0.9h27.2c2.2,0,3.7,0.4,3.3,0.9
									l-6.3,8.7C429.4,616,427.3,616.4,425,616.4z"/>
							</g>
						</g>
						<g>
							<g>
								<path class="st1" d="M377,616.4h-28.5c-2.2,0-3.7-0.4-3.2-0.9l8.5-8.7c0.5-0.5,2.6-0.9,4.8-0.9h27.6c2.2,0,3.6,0.4,3.2,0.9
									l-7.5,8.7C381.5,616,379.3,616.4,377,616.4z"/>
							</g>
						</g>
						<g>
							<g>
								<path class="st1" d="M472.9,616.4h-28c-2.2,0-3.8-0.4-3.4-0.9l5.9-8.7c0.3-0.5,2.4-0.9,4.5-0.9h27.1c2.2,0,3.7,0.4,3.4,0.9
									l-5,8.7C477.2,616,475.2,616.4,472.9,616.4z"/>
							</g>
						</g>
						<g>
							<g>
								<path class="st1" d="M933.4,616.4h-28.1c-2.2,0-4.4-0.4-4.7-0.9l-6.3-8.7c-0.3-0.5,1.1-0.9,3.3-0.9h27.2
									c2.2,0,4.3,0.4,4.7,0.9l7.2,8.7C937.2,616,935.7,616.4,933.4,616.4z"/>
							</g>
						</g>
						<g>
							<g>
								<path class="st1" d="M885.5,616.4h-28.5c-2.2,0-4.3-0.4-4.6-0.9l-2-3.5c-0.3-0.5,1.3-0.9,3.5-0.9h28.1
									c2.2,0,4.3,0.4,4.6,0.9l2.4,3.5C889.2,616,887.7,616.4,885.5,616.4z"/>
							</g>
						</g>
						<g>
							<g>
								<path class="st1" d="M981.3,616.4h-28c-2.2,0-4.4-0.4-4.9-0.9l-3-3.5c-0.4-0.5,1-0.9,3.2-0.9h27.5c2.2,0,4.4,0.4,4.9,0.9
									l3.4,3.5C985,616,983.6,616.4,981.3,616.4z"/>
							</g>
						</g>
						<g>
							<g>
								<path class="st1" d="M524.9,616.4h-32.1c-2.2,0-3.8-0.4-3.6-0.9l4.7-8.7c0.3-0.5,2.2-0.9,4.4-0.9h31.1
									c2.2,0,3.8,0.4,3.6,0.9l-3.6,8.7C529.2,616,527.2,616.4,524.9,616.4z"/>
							</g>
						</g>
						<g>
							<g>
								<path class="st1" d="M837,616.4h-32.1c-2.2,0-4.2-0.4-4.4-0.9l-3.6-8.7c-0.2-0.5,1.4-0.9,3.6-0.9h31.1
									c2.2,0,4.1,0.4,4.4,0.9l4.7,8.7C840.9,616,839.3,616.4,837,616.4z"/>
							</g>
						</g>
						<g>
							<g>
								<path class="st1" d="M925.4,593.3h-33.6c-2.1,0-3.5,0.4-3.1,1l5.6,7.7c0.4,0.6,2.5,1,4.6,1h34.7h34.7c2.2,0,3.5-0.5,2.9-1
									l-7.5-7.7c-0.5-0.5-2.6-1-4.7-1H925.4z"/>
							</g>
						</g>
						<g>
							<g>
								<path class="st1" d="M403.8,581.6H382c-2,0-4,0.4-4.5,0.9l-7,7.2c-0.5,0.5,0.8,0.9,2.8,0.9h22.5h22.5c2.1,0,4.1-0.4,4.5-0.9
									l5.7-7.2c0.4-0.5-0.9-0.9-2.9-0.9H403.8z"/>
							</g>
						</g>
						<g>
							<g>
								<g>
									<path class="st1" d="M514.2,590.5h-29.6c-2.1,0-3.5-0.4-3.3-0.8l4.5-7.4c0.2-0.4,2.1-0.7,4.1-0.7l28.7,0
										c2,0,3.5,0.3,3.3,0.7l-3.6,7.4C518.1,590.2,516.3,590.5,514.2,590.5z"/>
								</g>
							</g>
							<g>
								<g>
									<path class="st1" d="M466.3,590.5h-29.6c-2.1,0-3.5-0.4-3.1-0.8l5.7-7.4c0.3-0.4,2.2-0.7,4.2-0.7h28.7c2,0,3.4,0.3,3.2,0.7
										l-4.8,7.4C470.3,590.2,468.4,590.5,466.3,590.5z"/>
								</g>
							</g>
							<g>
								<g>
									<path class="st1" d="M562.2,590.5h-29.6c-2.1,0-3.6-0.4-3.4-0.8l3.3-7.4c0.2-0.4,2-0.7,4-0.7h28.7c2,0,3.5,0.3,3.4,0.7
										l-2.4,7.4C566,590.2,564.2,590.5,562.2,590.5z"/>
								</g>
							</g>
							<g>
								<g>
									<path class="st1" d="M610.1,590.5h-29.6c-2.1,0-3.6-0.4-3.5-0.8l2.2-7.4c0.1-0.4,1.8-0.7,3.9-0.7h28.7c2,0,3.6,0.3,3.5,0.7
										l-1.3,7.4C613.9,590.2,612.2,590.5,610.1,590.5z"/>
								</g>
							</g>
							<g>
								<g>
									<path class="st1" d="M705.9,590.5h-29.6c-2.1,0-3.8-0.4-3.8-0.8l-0.2-7.4c0-0.4,1.6-0.7,3.6-0.7h28.7c2,0,3.7,0.3,3.7,0.7
										l1.1,7.4C709.6,590.2,708,590.5,705.9,590.5z"/>
								</g>
							</g>
							<g>
								<g>
									<path class="st1" d="M658,590.5h-29.6c-2.1,0-3.7-0.4-3.6-0.8l1-7.4c0.1-0.4,1.7-0.7,3.7-0.7h28.7c2,0,3.6,0.3,3.6,0.7
										l-0.1,7.4C661.8,590.2,660.1,590.5,658,590.5z"/>
								</g>
							</g>
							<g>
								<g>
									<path class="st1" d="M753.9,590.5h-29.6c-2.1,0-3.8-0.4-3.9-0.8l-1.4-7.4c-0.1-0.4,1.5-0.7,3.5-0.7h28.7
										c2,0,3.7,0.3,3.9,0.7l2.3,7.4C757.5,590.2,755.9,590.5,753.9,590.5z"/>
								</g>
							</g>
							<g>
								<g>
									<path class="st1" d="M801.8,590.5h-29.6c-2.1,0-3.9-0.4-4-0.8l-2.5-7.4c-0.1-0.4,1.4-0.7,3.4-0.7h28.7c2,0,3.8,0.3,4,0.7
										l3.4,7.4C805.4,590.2,803.9,590.5,801.8,590.5z"/>
								</g>
							</g>
							<g>
								<g>
									<path class="st1" d="M849.7,590.5h-29.6c-2.1,0-3.9-0.4-4.1-0.8l-3.7-7.4c-0.2-0.4,1.3-0.7,3.3-0.7h28.7
										c2,0,3.8,0.3,4.1,0.7l4.6,7.4C853.2,590.2,851.8,590.5,849.7,590.5z"/>
								</g>
							</g>
							<g>
								<g>
									<path class="st1" d="M897.6,590.5h-29.6c-2.1,0-4-0.4-4.3-0.8l-4.9-7.4c-0.3-0.4,1.1-0.7,3.1-0.7h28.7c2,0,3.9,0.3,4.2,0.7
										l5.8,7.4C901.1,590.2,899.7,590.5,897.6,590.5z"/>
								</g>
							</g>
						</g>
						<g>
							<g>
								<g>
									<path class="st1" d="M463.7,568.4h-26.2c-1.9,0-3.2-0.3-2.9-0.7l2.1-2.6c0.3-0.4,2.1-0.7,4-0.7h25.9c1.9,0,3.2,0.3,3,0.7
										l-1.8,2.6C467.4,568.1,465.7,568.4,463.7,568.4z"/>
								</g>
							</g>
							<g>
								<g>
									<path class="st1" d="M420.9,568.4h-26.2c-1.9,0-3.2-0.3-2.8-0.7l2.5-2.6c0.4-0.4,2.2-0.7,4.1-0.7h25.9
										c1.9,0,3.2,0.3,2.9,0.7l-2.2,2.6C424.6,568.1,422.8,568.4,420.9,568.4z"/>
								</g>
							</g>
							<g>
								<g>
									<path class="st1" d="M506.6,568.4h-26.2c-1.9,0-3.3-0.3-3-0.7l1.7-2.6c0.2-0.4,2-0.7,3.9-0.7h25.9c1.9,0,3.3,0.3,3.1,0.7
										l-1.4,2.6C510.2,568.1,508.5,568.4,506.6,568.4z"/>
								</g>
							</g>
							<g>
								<g>
									<path class="st1" d="M549.5,568.4h-26.2c-1.9,0-3.3-0.3-3.1-0.7l1.3-2.6c0.2-0.4,1.9-0.7,3.8-0.7h25.9
										c1.9,0,3.3,0.3,3.2,0.7l-1,2.6C553.1,568.1,551.4,568.4,549.5,568.4z"/>
								</g>
							</g>
							<g>
								<g>
									<path class="st1" d="M635.2,568.4H609c-1.9,0-3.4-0.3-3.3-0.7l0.5-2.6c0.1-0.4,1.7-0.7,3.6-0.7h25.9c1.9,0,3.4,0.3,3.4,0.7
										l-0.2,2.6C638.7,568.1,637.1,568.4,635.2,568.4z"/>
								</g>
							</g>
							<g>
								<g>
									<path class="st1" d="M592.3,568.4h-26.2c-1.9,0-3.4-0.3-3.2-0.7l0.9-2.6c0.1-0.4,1.8-0.7,3.7-0.7h25.9
										c1.9,0,3.4,0.3,3.3,0.7l-0.6,2.6C595.9,568.1,594.2,568.4,592.3,568.4z"/>
								</g>
							</g>
							<g>
								<g>
									<path class="st1" d="M678,568.4h-26.2c-1.9,0-3.5-0.3-3.4-0.7l0.2-2.6c0-0.4,1.6-0.7,3.5-0.7h25.9c1.9,0,3.4,0.3,3.5,0.7
										l0.2,2.6C681.5,568.1,680,568.4,678,568.4z"/>
								</g>
							</g>
							<g>
								<g>
									<path class="st1" d="M720.9,568.4h-26.2c-1.9,0-3.5-0.3-3.5-0.7l-0.2-2.6c0-0.4,1.5-0.7,3.4-0.7h25.9
										c1.9,0,3.5,0.3,3.6,0.7l0.5,2.6C724.3,568.1,722.8,568.4,720.9,568.4z"/>
								</g>
							</g>
							<g>
								<g>
									<path class="st1" d="M763.8,568.4h-26.2c-1.9,0-3.5-0.3-3.6-0.7l-0.6-2.6c-0.1-0.4,1.4-0.7,3.3-0.7h25.9
										c1.9,0,3.5,0.3,3.7,0.7l0.9,2.6C767.1,568.1,765.7,568.4,763.8,568.4z"/>
								</g>
							</g>
							<g>
								<g>
									<path class="st1" d="M806.6,568.4h-26.2c-1.9,0-3.6-0.3-3.7-0.7l-1-2.6c-0.1-0.4,1.3-0.7,3.2-0.7h25.9
										c1.9,0,3.6,0.3,3.8,0.7l1.3,2.6C809.9,568.1,808.5,568.4,806.6,568.4z"/>
								</g>
							</g>
							<g>
								<g>
									<path class="st1" d="M849.5,568.4h-26.2c-1.9,0-3.6-0.3-3.8-0.7l-1.4-2.6c-0.2-0.4,1.2-0.7,3.1-0.7h25.9
										c1.9,0,3.6,0.3,3.9,0.7l1.7,2.6C852.7,568.1,851.4,568.4,849.5,568.4z"/>
								</g>
							</g>
							<g>
								<g>
									<path class="st1" d="M892.3,568.4h-26.2c-1.9,0-3.7-0.3-3.9-0.7l-1.8-2.6c-0.3-0.4,1.1-0.7,3-0.7h25.9c1.9,0,3.7,0.3,4,0.7
										l2.1,2.6C895.6,568.1,894.2,568.4,892.3,568.4z"/>
								</g>
							</g>
							<g>
								<g>
									<path class="st1" d="M935.2,568.4H909c-1.9,0-3.7-0.3-4-0.7l-2.2-2.6c-0.3-0.4,1-0.7,2.9-0.7h25.9c1.9,0,3.7,0.3,4.1,0.7
										l2.5,2.6C938.4,568.1,937.1,568.4,935.2,568.4z"/>
								</g>
							</g>
						</g>
						<g>
							<g>
								<path class="st1" d="M928.2,581.6h-19.6c-2,0-3.3,0.4-2.9,0.9l5.8,7.2c0.4,0.5,2.4,0.9,4.5,0.9l20.2,0h20.2
									c2.1,0,3.3-0.4,2.8-0.9l-7-7.2c-0.5-0.5-2.5-0.9-4.5-0.9H928.2z"/>
							</g>
						</g>
						<g>
							<g>
								<g>
									<path class="st1" d="M413.4,570.7h-21c-1.9,0-3.9,0.4-4.3,0.8l-6.4,6.6c-0.5,0.5,0.8,0.9,2.8,0.9h21.6h10.8
										c2,0,3.9-0.4,4.3-0.9l5.5-6.6c0.4-0.5-0.9-0.8-2.8-0.8H413.4z"/>
								</g>
							</g>
							<g>
								<g>
									<g>
										<path class="st1" d="M509.1,579h-28.5c-2,0-3.4-0.3-3.1-0.7l4.4-6.9c0.2-0.4,2-0.7,3.9-0.7h27.7c1.9,0,3.3,0.3,3.1,0.7
											l-3.6,6.9C512.9,578.7,511.1,579,509.1,579z"/>
									</g>
								</g>
								<g>
									<g>
										<path class="st1" d="M463,579h-28.5c-2,0-3.3-0.3-3-0.7l5.5-6.9c0.3-0.4,2.1-0.7,4.1-0.7h27.7c1.9,0,3.3,0.3,3,0.7
											l-4.7,6.9C466.8,578.7,465,579,463,579z"/>
									</g>
								</g>
								<g>
									<g>
										<path class="st1" d="M555.2,579h-28.5c-2,0-3.4-0.3-3.3-0.7l3.3-6.9c0.2-0.4,1.9-0.7,3.8-0.7h27.7c1.9,0,3.4,0.3,3.3,0.7
											l-2.5,6.9C559,578.7,557.2,579,555.2,579z"/>
									</g>
								</g>
								<g>
									<g>
										<path class="st1" d="M601.4,579h-28.5c-2,0-3.5-0.3-3.4-0.7l2.3-6.9c0.1-0.4,1.8-0.7,3.7-0.7h27.7c1.9,0,3.4,0.3,3.4,0.7
											l-1.4,6.9C605,578.7,603.3,579,601.4,579z"/>
									</g>
								</g>
								<g>
									<g>
										<path class="st1" d="M693.6,579h-28.5c-2,0-3.6-0.3-3.6-0.7l0.1-6.9c0-0.4,1.6-0.7,3.5-0.7h27.7c1.9,0,3.5,0.3,3.6,0.7
											l0.8,6.9C697.1,578.7,695.6,579,693.6,579z"/>
									</g>
								</g>
								<g>
									<g>
										<path class="st1" d="M647.5,579H619c-2,0-3.5-0.3-3.5-0.7l1.2-6.9c0.1-0.4,1.7-0.7,3.6-0.7H648c1.9,0,3.5,0.3,3.5,0.7
											l-0.3,6.9C651.1,578.7,649.5,579,647.5,579z"/>
									</g>
								</g>
								<g>
									<g>
										<path class="st1" d="M739.7,579h-28.5c-2,0-3.7-0.3-3.7-0.7l-1-6.9c-0.1-0.4,1.5-0.7,3.4-0.7h27.7c1.9,0,3.6,0.3,3.7,0.7
											l1.8,6.9C743.2,578.7,741.7,579,739.7,579z"/>
									</g>
								</g>
								<g>
									<g>
										<path class="st1" d="M785.8,579h-28.5c-2,0-3.7-0.3-3.8-0.7l-2.1-6.9c-0.1-0.4,1.4-0.7,3.3-0.7h27.7
											c1.9,0,3.6,0.3,3.8,0.7l2.9,6.9C789.3,578.7,787.8,579,785.8,579z"/>
									</g>
								</g>
								<g>
									<g>
										<path class="st1" d="M831.9,579h-28.5c-2,0-3.8-0.3-3.9-0.7l-3.2-6.9c-0.2-0.4,1.2-0.7,3.2-0.7h27.7
											c1.9,0,3.7,0.3,3.9,0.7l4,6.9C835.3,578.7,833.9,579,831.9,579z"/>
									</g>
								</g>
								<g>
									<g>
										<path class="st1" d="M878,579h-28.5c-2,0-3.8-0.3-4.1-0.7l-4.3-6.9c-0.2-0.4,1.1-0.7,3.1-0.7H872c1.9,0,3.7,0.3,4,0.7
											l5.1,6.9C881.4,578.7,880,579,878,579z"/>
									</g>
								</g>
							</g>
							<g>
								<g>
									<path class="st1" d="M908,570.7h-18.9c-1.9,0-3.2,0.4-2.9,0.8l5.2,6.6c0.4,0.5,2.3,0.9,4.3,0.9h19.5h30.3
										c2,0,3.2-0.4,2.8-0.9l-6.4-6.6c-0.4-0.5-2.4-0.8-4.3-0.8H908z"/>
								</g>
							</g>
						</g>
						<g>
							<g>
								<path class="st1" d="M785,616.4l-240.2,0c-2.2,0-3.9-0.4-3.7-0.9l3.3-8.7c0.2-0.5,2.1-0.9,4.3-0.9l232.5,0
									c2.2,0,4.1,0.4,4.3,0.9l3.3,8.7C788.9,616,787.3,616.4,785,616.4z"/>
							</g>
						</g>
					</g>
				</g>
			</g>
			<g>
				<g>
					<path class="st0" d="M752.1,260.4c-0.2,0-0.4,0.2-0.4,0.4v3.9c0,0.2,0.2,0.4,0.4,0.4c0.2,0,0.4-0.2,0.4-0.4v-3.9
						C752.5,260.6,752.3,260.4,752.1,260.4z"/>
				</g>
				<g>
					<path class="st0" d="M746.1,262.9c-0.2-0.2-0.4-0.2-0.6,0c-0.2,0.2-0.2,0.4,0,0.6l2.8,2.8c0.1,0.1,0.2,0.1,0.3,0.1
						c0.1,0,0.2,0,0.3-0.1c0.2-0.2,0.2-0.4,0-0.6L746.1,262.9z"/>
				</g>
				<g>
					<path class="st0" d="M743.1,269.7h3.9c0.2,0,0.4-0.2,0.4-0.4c0-0.2-0.2-0.4-0.4-0.4h-3.9c-0.2,0-0.4,0.2-0.4,0.4
						C742.6,269.5,742.8,269.7,743.1,269.7z"/>
				</g>
				<g>
					<path class="st0" d="M747.9,272.4l-2.8,2.8c-0.2,0.2-0.2,0.4,0,0.6c0.1,0.1,0.2,0.1,0.3,0.1c0.1,0,0.2,0,0.3-0.1l2.8-2.8
						c0.2-0.2,0.2-0.4,0-0.6C748.3,272.2,748,272.2,747.9,272.4z"/>
				</g>
				<g>
					<path class="st0" d="M751.4,278.7c0.2,0,0.4-0.2,0.4-0.4v-3.9c0-0.2-0.2-0.4-0.4-0.4c-0.2,0-0.4,0.2-0.4,0.4v3.9
						C751,278.5,751.2,278.7,751.4,278.7z"/>
				</g>
				<g>
					<path class="st0" d="M755.2,272.8c-0.2-0.2-0.4-0.2-0.6,0c-0.2,0.2-0.2,0.4,0,0.6l2.8,2.8c0.1,0.1,0.2,0.1,0.3,0.1
						s0.2,0,0.3-0.1c0.2-0.2,0.2-0.4,0-0.6L755.2,272.8z"/>
				</g>
				<g>
					<path class="st0" d="M760.4,269.4h-3.9c-0.2,0-0.4,0.2-0.4,0.4s0.2,0.4,0.4,0.4h3.9c0.2,0,0.4-0.2,0.4-0.4
						S760.7,269.4,760.4,269.4z"/>
				</g>
				<g>
					<path class="st0" d="M755.3,266.8c0.1,0,0.2,0,0.3-0.1l2.8-2.8c0.2-0.2,0.2-0.4,0-0.6c-0.2-0.2-0.4-0.2-0.6,0l-2.8,2.8
						c-0.2,0.2-0.2,0.4,0,0.6C755.1,266.8,755.2,266.8,755.3,266.8z"/>
				</g>
			</g>
			<g>
				<g>
					<path class="st0" d="M841.6,468.7c0.2,0,0.4-0.2,0.4-0.4v-3.9c0-0.2-0.2-0.4-0.4-0.4s-0.4,0.2-0.4,0.4v3.9
						C841.2,468.5,841.4,468.7,841.6,468.7z"/>
				</g>
				<g>
					<path class="st0" d="M837.9,469.7c0.1,0.1,0.2,0.1,0.3,0.1s0.2,0,0.3-0.1c0.2-0.2,0.2-0.4,0-0.6l-2.8-2.8
						c-0.2-0.2-0.4-0.2-0.6,0c-0.2,0.2-0.2,0.4,0,0.6L837.9,469.7z"/>
				</g>
				<g>
					<path class="st0" d="M832.6,473.1h3.9c0.2,0,0.4-0.2,0.4-0.4c0-0.2-0.2-0.4-0.4-0.4h-3.9c-0.2,0-0.4,0.2-0.4,0.4
						C832.2,472.9,832.4,473.1,832.6,473.1z"/>
				</g>
				<g>
					<path class="st0" d="M837.4,475.8l-2.8,2.8c-0.2,0.2-0.2,0.4,0,0.6c0.1,0.1,0.2,0.1,0.3,0.1s0.2,0,0.3-0.1l2.8-2.8
						c0.2-0.2,0.2-0.4,0-0.6C837.9,475.6,837.6,475.6,837.4,475.8z"/>
				</g>
				<g>
					<path class="st0" d="M841,482.1c0.2,0,0.4-0.2,0.4-0.4v-3.9c0-0.2-0.2-0.4-0.4-0.4c-0.2,0-0.4,0.2-0.4,0.4v3.9
						C840.6,481.9,840.8,482.1,841,482.1z"/>
				</g>
				<g>
					<path class="st0" d="M846.9,479.6c0.1,0.1,0.2,0.1,0.3,0.1c0.1,0,0.2,0,0.3-0.1c0.2-0.2,0.2-0.4,0-0.6l-2.8-2.8
						c-0.2-0.2-0.4-0.2-0.6,0c-0.2,0.2-0.2,0.4,0,0.6L846.9,479.6z"/>
				</g>
				<g>
					<path class="st0" d="M845.6,473.3c0,0.2,0.2,0.4,0.4,0.4h3.9c0.2,0,0.4-0.2,0.4-0.4c0-0.2-0.2-0.4-0.4-0.4h-3.9
						C845.8,472.9,845.6,473.1,845.6,473.3z"/>
				</g>
				<g>
					<path class="st0" d="M844.9,470.3c0.1,0,0.2,0,0.3-0.1l2.8-2.8c0.2-0.2,0.2-0.4,0-0.6c-0.2-0.2-0.4-0.2-0.6,0l-2.8,2.8
						c-0.2,0.2-0.2,0.4,0,0.6C844.7,470.2,844.8,470.3,844.9,470.3z"/>
				</g>
			</g>
			<g>
				<path class="st0" d="M908.1,312.7h-4.2v-4.2c0-0.2-0.2-0.4-0.4-0.4c-0.2,0-0.4,0.2-0.4,0.4v4.2h-4.2c-0.2,0-0.4,0.2-0.4,0.4
					c0,0.2,0.2,0.4,0.4,0.4h4.2v4.2c0,0.2,0.2,0.4,0.4,0.4c0.2,0,0.4-0.2,0.4-0.4v-4.2h4.2c0.2,0,0.4-0.2,0.4-0.4
					C908.5,312.9,908.3,312.7,908.1,312.7z"/>
			</g>
			<g>
				<path class="st0" d="M697.2,322.5h4.2v4.2c0,0.2,0.2,0.4,0.4,0.4c0.2,0,0.4-0.2,0.4-0.4v-4.2h4.2c0.2,0,0.4-0.2,0.4-0.4
					c0-0.2-0.2-0.4-0.4-0.4h-4.2v-4.2c0-0.2-0.2-0.4-0.4-0.4c-0.2,0-0.4,0.2-0.4,0.4v4.2h-4.2c-0.2,0-0.4,0.2-0.4,0.4
					C696.7,322.3,696.9,322.5,697.2,322.5z"/>
			</g>
			<g>
				<path class="st0" d="M715.1,437.3h-4.2v-4.2c0-0.2-0.2-0.4-0.4-0.4c-0.2,0-0.4,0.2-0.4,0.4v4.2h-4.2c-0.2,0-0.4,0.2-0.4,0.4
					c0,0.2,0.2,0.4,0.4,0.4h4.2v4.2c0,0.2,0.2,0.4,0.4,0.4c0.2,0,0.4-0.2,0.4-0.4v-4.2h4.2c0.2,0,0.4-0.2,0.4-0.4
					C715.6,437.5,715.4,437.3,715.1,437.3z"/>
			</g>
			<g>
				<path class="st0" d="M900.9,447.1h-4.2v-4.2c0-0.2-0.2-0.4-0.4-0.4c-0.2,0-0.4,0.2-0.4,0.4v4.2h-4.2c-0.2,0-0.4,0.2-0.4,0.4
					c0,0.2,0.2,0.4,0.4,0.4h4.2v4.2c0,0.2,0.2,0.4,0.4,0.4c0.2,0,0.4-0.2,0.4-0.4V448h4.2c0.2,0,0.4-0.2,0.4-0.4
					C901.3,447.3,901.1,447.1,900.9,447.1z"/>
			</g>
			<g>
				<g>
					<path class="st0" d="M864,269.5c-1.8,0-3.2,1.4-3.2,3.2c0,1.8,1.4,3.2,3.2,3.2c1.8,0,3.2-1.4,3.2-3.2
						C867.3,270.9,865.8,269.5,864,269.5z M864,275.1c-1.3,0-2.4-1.1-2.4-2.4c0-1.3,1.1-2.4,2.4-2.4c1.3,0,2.4,1.1,2.4,2.4
						C866.4,274,865.3,275.1,864,275.1z"/>
				</g>
			</g>
			<g>
				<g>
					<path class="st0" d="M777.6,468.6c-1.8,0-3.2,1.4-3.2,3.2c0,1.8,1.4,3.2,3.2,3.2s3.2-1.4,3.2-3.2
						C780.8,470.1,779.3,468.6,777.6,468.6z M777.6,474.2c-1.3,0-2.4-1.1-2.4-2.4c0-1.3,1.1-2.4,2.4-2.4c1.3,0,2.4,1.1,2.4,2.4
						C779.9,473.2,778.9,474.2,777.6,474.2z"/>
				</g>
			</g>
			<g>
				<g>
					<circle class="st0" cx="811.5" cy="261.5" r="0.6"/>
				</g>
				<g>
					<path class="st0" d="M815.4,260.5c0.3-0.3,0.3-0.7,0-0.9c-0.3-0.3-0.7-0.3-0.9,0c-0.3,0.3-0.3,0.7,0,0.9
						c0.1,0.1,0.3,0.2,0.5,0.2C815.1,260.7,815.3,260.6,815.4,260.5z"/>
				</g>
				<g>
					<path class="st0" d="M814.9,253.8c0.2,0,0.3-0.1,0.5-0.2c0.3-0.3,0.2-0.7,0-0.9c-0.3-0.3-0.7-0.3-0.9,0c-0.3,0.3-0.3,0.7,0,0.9
						C814.6,253.7,814.8,253.8,814.9,253.8z"/>
				</g>
				<g>
					<path class="st0" d="M807.6,259.6c-0.3,0.3-0.3,0.7,0,0.9c0,0,0,0,0,0c0.1,0.1,0.3,0.2,0.5,0.2c0.2,0,0.3-0.1,0.5-0.2
						c0.3-0.3,0.3-0.7,0-0.9C808.3,259.3,807.8,259.3,807.6,259.6z"/>
				</g>
				<g>
					<path class="st0" d="M808,253.8c0.2,0,0.3-0.1,0.5-0.2c0.3-0.3,0.3-0.7,0-0.9c-0.3-0.3-0.7-0.3-0.9,0c-0.3,0.3-0.2,0.7,0,0.9
						C807.7,253.7,807.9,253.8,808,253.8z"/>
				</g>
				<g>
					<path class="st0" d="M816.4,257.2c0.4,0,0.6-0.3,0.6-0.7c0,0,0,0,0,0c0,0,0,0,0,0c0-0.4-0.3-0.6-0.7-0.6
						c-0.4,0-0.6,0.3-0.6,0.6c0,0,0,0,0,0C815.7,256.9,816,257.2,816.4,257.2z"/>
				</g>
				<g>
					
						<ellipse transform="matrix(1 -3.245231e-03 3.245231e-03 1 -0.8126 2.6348)" class="st0" cx="811.5" cy="251.7" rx="0.6" ry="0.6"/>
				</g>
				<g>
					
						<ellipse transform="matrix(1 -3.245482e-03 3.245482e-03 1 -0.8286 2.6192)" class="st0" cx="806.6" cy="256.6" rx="0.6" ry="0.6"/>
				</g>
			</g>
			<g>
				<g>
					<path class="st0" d="M691.8,378.2c-0.3,0.3-0.2,0.7,0,0.9c0.1,0.1,0.3,0.2,0.5,0.2c0.2,0,0.3-0.1,0.5-0.2
						c0.3-0.3,0.3-0.7,0-0.9C692.5,377.9,692.1,377.9,691.8,378.2z"/>
				</g>
				<g>
					
						<ellipse transform="matrix(1 -3.167964e-03 3.167964e-03 1 -1.207 2.1905)" class="st0" cx="690.8" cy="382.1" rx="0.6" ry="0.6"/>
				</g>
				<g>
					<path class="st0" d="M698.7,385.1c-0.3,0.3-0.3,0.7,0,0.9c0.1,0.1,0.3,0.2,0.5,0.2c0.2,0,0.3-0.1,0.5-0.2
						c0.3-0.3,0.3-0.7,0-0.9C699.4,384.8,699,384.8,698.7,385.1z"/>
				</g>
				<g>
					<path class="st0" d="M699.2,379.3c0.2,0,0.3-0.1,0.5-0.2c0.3-0.3,0.2-0.7,0-0.9c-0.3-0.3-0.7-0.3-0.9,0c-0.3,0.3-0.3,0.7,0,0.9
						C698.8,379.2,699,379.3,699.2,379.3z"/>
				</g>
				<g>
					<path class="st0" d="M700.6,381.4c-0.4,0-0.6,0.3-0.6,0.6c0,0,0,0,0,0c0,0.4,0.3,0.7,0.6,0.7s0.6-0.3,0.6-0.7c0,0,0,0,0,0
						c0,0,0,0,0,0C701.3,381.7,701,381.4,700.6,381.4z"/>
				</g>
				<g>
					
						<ellipse transform="matrix(1 -3.245482e-03 3.245482e-03 1 -1.2205 2.2599)" class="st0" cx="695.7" cy="377.2" rx="0.6" ry="0.6"/>
				</g>
				<g>
					<circle class="st0" cx="695.7" cy="387" r="0.6"/>
				</g>
				<g>
					<path class="st0" d="M691.8,385.1c-0.3,0.3-0.3,0.7,0,0.9c0,0,0,0,0,0c0.1,0.1,0.3,0.2,0.5,0.2c0.2,0,0.3-0.1,0.5-0.2
						c0.3-0.3,0.3-0.7,0-0.9C692.5,384.8,692.1,384.8,691.8,385.1z"/>
				</g>
			</g>
			<g>
				<g>
					<path class="st0" d="M911.4,386.2c0.2,0,0.3-0.1,0.5-0.2c0.3-0.3,0.2-0.7,0-0.9c-0.3-0.3-0.7-0.3-0.9,0c-0.3,0.3-0.3,0.7,0,0.9
						C911.1,386.1,911.3,386.2,911.4,386.2z"/>
				</g>
				<g>
					<path class="st0" d="M912.9,388.4c-0.4,0-0.6,0.3-0.6,0.6c0,0,0,0,0,0c0,0.4,0.3,0.7,0.6,0.7s0.6-0.3,0.6-0.7c0,0,0,0,0,0
						c0,0,0,0,0,0C913.5,388.7,913.2,388.4,912.9,388.4z"/>
				</g>
				<g>
					<path class="st0" d="M911,392c-0.3,0.3-0.3,0.7,0,0.9c0.1,0.1,0.3,0.2,0.5,0.2c0.2,0,0.3-0.1,0.5-0.2c0.3-0.3,0.3-0.7,0-0.9
						C911.7,391.8,911.3,391.8,911,392z"/>
				</g>
				<g>
					
						<ellipse transform="matrix(1 -3.245482e-03 3.245482e-03 1 -1.2419 2.9489)" class="st0" cx="908" cy="384.1" rx="0.6" ry="0.6"/>
				</g>
				<g>
					<circle class="st0" cx="908" cy="393.9" r="0.6"/>
				</g>
				<g>
					<path class="st0" d="M904.1,385.1c-0.3,0.3-0.2,0.7,0,0.9c0.1,0.1,0.3,0.2,0.5,0.2c0.2,0,0.3-0.1,0.5-0.2
						c0.3-0.3,0.3-0.7,0-0.9C904.7,384.9,904.3,384.9,904.1,385.1z"/>
				</g>
				<g>
					
						<ellipse transform="matrix(1 -3.245482e-03 3.245482e-03 1 -1.2579 2.9331)" class="st0" cx="903.1" cy="389" rx="0.6" ry="0.6"/>
				</g>
				<g>
					<path class="st0" d="M904.1,392c-0.3,0.3-0.3,0.7,0,0.9c0,0,0,0,0,0c0.1,0.1,0.3,0.2,0.5,0.2c0.2,0,0.3-0.1,0.5-0.2
						c0.3-0.3,0.3-0.7,0-0.9C904.8,391.8,904.3,391.8,904.1,392z"/>
				</g>
			</g>
			<g>
				<g>
					<path class="st0" d="M854.7,422.3c-7,0-12.6,5.7-12.6,12.6s5.7,12.6,12.6,12.6c7,0,12.6-5.7,12.6-12.6S861.7,422.3,854.7,422.3
						z M854.7,441.1c-3.4,0-6.1-2.7-6.1-6.1c0-3.4,2.7-6.1,6.1-6.1c3.4,0,6.1,2.7,6.1,6.1C860.8,438.3,858.1,441.1,854.7,441.1z"/>
				</g>
			</g>
		</g>
	</g>
</g>
</svg>
