<svg xmlns="http://www.w3.org/2000/svg" viewBox="0 0 828.43 512.9"><defs><style>.cls-1{fill:#f2f2f2;}.cls-2{fill:#4d4d4d;}.cls-3{fill:#dedede;}</style></defs><title>Asset 1</title><g id="Layer_2" data-name="Layer 2"><g id="Layer_1-2" data-name="Layer 1"><g id="Layer_1-3" data-name="Layer 1"><path class="cls-1" d="M702.12,394.3H126.32a10.24,10.24,0,0,1-10.2-10.2V10.2A10.24,10.24,0,0,1,126.32,0h575.8a10.24,10.24,0,0,1,10.2,10.2V384.1A10.12,10.12,0,0,1,702.12,394.3Z"/><path class="cls-2" d="M117.82,383V11.3a9.39,9.39,0,0,1,9.4-9.4h574.2a9.39,9.39,0,0,1,9.4,9.4V383a9.39,9.39,0,0,1-9.4,9.4H127.22A9.39,9.39,0,0,1,117.82,383Z"/><rect class="cls-1" x="142.52" y="33.1" width="543.5" height="328.2"/><path class="cls-1" d="M807.22,500.5h-786c-15.5,0-24.5-3.3-20.1-7.3l110.8-99.9c2.3-2.1,13.1-3.8,24.1-3.8h556.4c11,0,21.8,1.7,24.1,3.8l110.8,99.9C831.72,497.2,822.72,500.5,807.22,500.5Z"/><path class="cls-3" d="M828.42,495.2c0,3-8.4,5.3-21.2,5.3h-786c-12.6,0-20.8-2.2-21.2-5.1H0v12.3c.1,3,8.4,5.2,21.2,5.2h786c12.8,0,21.1-2.2,21.2-5.2V495.2Z"/><path class="cls-3" d="M742.92,454H85.52c-4.5,0-7.4-.8-6.3-1.9l55.6-55c.7-.7,4.4-1.3,8.1-1.3h542.7c3.8,0,7.4.6,8.1,1.3l55.6,55C750.32,453.2,747.52,454,742.92,454Z"/><path class="cls-3" d="M512.72,494.4H315.82c-5.1,0-8.9-1.1-8.5-2.4l8.7-30.3c.3-1.1,4.3-2,8.9-2h178.6c4.6,0,8.6.9,8.9,2l8.7,30.3C521.62,493.4,517.82,494.4,512.72,494.4Z"/><path class="cls-2" d="M153.72,426.9h-33.6c-2.1,0-4.2.4-4.7,1l-7.5,7.7c-.5.6.8,1,2.9,1h69.4c2.2,0,4.2-.5,4.6-1l5.6-7.7c.4-.5-1-1-3.1-1Z"/><path class="cls-2" d="M230.12,436.6h-30.8c-2.2,0-3.6-.4-3.3-.9l5.6-8c.3-.4,2.2-.8,4.3-.8h29.9c2.1,0,3.6.4,3.3.8l-4.6,8C234.22,436.2,232.22,436.6,230.12,436.6Z"/><path class="cls-2" d="M280,436.6h-30.8c-2.2,0-3.7-.4-3.4-.9l4.3-8c.2-.4,2.1-.8,4.2-.8h29.9c2.1,0,3.6.4,3.4.8l-3.3,8C284,436.2,282.12,436.6,280,436.6Z"/><path class="cls-2" d="M329.92,436.6h-30.8c-2.2,0-3.8-.4-3.6-.9l3-8c.2-.4,2-.8,4.1-.8h29.9c2.1,0,3.7.4,3.6.8l-2,8C333.82,436.2,332,436.6,329.92,436.6Z"/><path class="cls-2" d="M429.62,436.6h-30.8c-2.2,0-3.9-.4-3.8-.9l.5-8c0-.4,1.7-.8,3.8-.8h29.9c2.1,0,3.8.4,3.8.8l.5,8C433.52,436.2,431.82,436.6,429.62,436.6Z"/><path class="cls-2" d="M379.72,436.6h-30.8c-2.2,0-3.8-.4-3.7-.9l1.8-8c.1-.4,1.9-.8,4-.8h29.9c2.1,0,3.7.4,3.7.8l-.8,8C383.72,436.2,381.92,436.6,379.72,436.6Z"/><path class="cls-2" d="M479.52,436.6h-30.8c-2.2,0-3.9-.4-4-.9l-.8-8c0-.4,1.6-.8,3.7-.8h29.9c2.1,0,3.9.4,4,.8l1.8,8C483.32,436.2,481.72,436.6,479.52,436.6Z"/><path class="cls-2" d="M529.42,436.6h-30.8c-2.2,0-4-.4-4.1-.9l-2-8c-.1-.4,1.5-.8,3.6-.8H526c2.1,0,3.9.4,4.1.8l3,8C533.22,436.2,531.62,436.6,529.42,436.6Z"/><path class="cls-2" d="M579.32,436.6h-30.8c-2.2,0-4.1-.4-4.2-.9l-3.3-8c-.2-.4,1.4-.8,3.4-.8h29.9c2.1,0,4,.4,4.2.8l4.3,8C583,436.2,581.52,436.6,579.32,436.6Z"/><path class="cls-2" d="M629.22,436.6h-30.8c-2.2,0-4.1-.4-4.4-.9l-4.6-8c-.3-.4,1.2-.8,3.3-.8h29.9c2.1,0,4,.4,4.3.8l5.6,8C632.82,436.2,631.32,436.6,629.22,436.6Z"/><path class="cls-2" d="M174.32,450h-28.1c-2.2,0-3.7-.4-3.3-.9l7.2-8.7c.4-.5,2.5-.9,4.7-.9H182c2.2,0,3.7.4,3.3.9l-6.3,8.7C178.72,449.6,176.62,450,174.32,450Z"/><path class="cls-2" d="M126.32,450H97.82c-2.2,0-3.7-.4-3.2-.9l8.5-8.7c.5-.5,2.6-.9,4.8-.9h27.6c2.2,0,3.6.4,3.2.9l-7.5,8.7C130.82,449.6,128.62,450,126.32,450Z"/><path class="cls-2" d="M222.22,450h-28c-2.2,0-3.8-.4-3.4-.9l5.9-8.7c.3-.5,2.4-.9,4.5-.9h27.1c2.2,0,3.7.4,3.4.9l-5,8.7C226.52,449.6,224.52,450,222.22,450Z"/><path class="cls-2" d="M682.72,450h-28.1c-2.2,0-4.4-.4-4.7-.9l-6.3-8.7c-.3-.5,1.1-.9,3.3-.9h27.2c2.2,0,4.3.4,4.7.9l7.2,8.7C686.52,449.6,685,450,682.72,450Z"/><path class="cls-2" d="M634.82,450h-28.5c-2.2,0-4.3-.4-4.6-.9l-2-3.5c-.3-.5,1.3-.9,3.5-.9h28.1c2.2,0,4.3.4,4.6.9l2.4,3.5C638.52,449.6,637,450,634.82,450Z"/><path class="cls-2" d="M730.62,450h-28c-2.2,0-4.4-.4-4.9-.9l-3-3.5c-.4-.5,1-.9,3.2-.9h27.5c2.2,0,4.4.4,4.9.9l3.4,3.5C734.32,449.6,732.92,450,730.62,450Z"/><path class="cls-2" d="M274.22,450h-32.1c-2.2,0-3.8-.4-3.6-.9l4.7-8.7c.3-.5,2.2-.9,4.4-.9h31.1c2.2,0,3.8.4,3.6.9l-3.6,8.7C278.52,449.6,276.52,450,274.22,450Z"/><path class="cls-2" d="M586.32,450h-32.1c-2.2,0-4.2-.4-4.4-.9l-3.6-8.7c-.2-.5,1.4-.9,3.6-.9h31.1c2.2,0,4.1.4,4.4.9l4.7,8.7C590.22,449.6,588.62,450,586.32,450Z"/><path class="cls-2" d="M674.72,426.9h-33.6c-2.1,0-3.5.4-3.1,1l5.6,7.7c.4.6,2.5,1,4.6,1h69.4c2.2,0,3.5-.5,2.9-1l-7.5-7.7c-.5-.5-2.6-1-4.7-1Z"/><path class="cls-2" d="M153.12,415.2h-21.8c-2,0-4,.4-4.5.9l-7,7.2c-.5.5.8.9,2.8.9h45c2.1,0,4.1-.4,4.5-.9l5.7-7.2c.4-.5-.9-.9-2.9-.9Z"/><path class="cls-2" d="M263.52,424.1h-29.6c-2.1,0-3.5-.4-3.3-.8l4.5-7.4c.2-.4,2.1-.7,4.1-.7h28.7c2,0,3.5.3,3.3.7l-3.6,7.4C267.42,423.8,265.62,424.1,263.52,424.1Z"/><path class="cls-2" d="M215.62,424.1H186c-2.1,0-3.5-.4-3.1-.8l5.7-7.4c.3-.4,2.2-.7,4.2-.7h28.7c2,0,3.4.3,3.2.7l-4.8,7.4C219.62,423.8,217.72,424.1,215.62,424.1Z"/><path class="cls-2" d="M311.52,424.1h-29.6c-2.1,0-3.6-.4-3.4-.8l3.3-7.4c.2-.4,2-.7,4-.7h28.7c2,0,3.5.3,3.4.7l-2.4,7.4C315.32,423.8,313.52,424.1,311.52,424.1Z"/><path class="cls-2" d="M359.42,424.1h-29.6c-2.1,0-3.6-.4-3.5-.8l2.2-7.4c.1-.4,1.8-.7,3.9-.7h28.7c2,0,3.6.3,3.5.7l-1.3,7.4C363.22,423.8,361.52,424.1,359.42,424.1Z"/><path class="cls-2" d="M455.22,424.1h-29.6c-2.1,0-3.8-.4-3.8-.8l-.2-7.4c0-.4,1.6-.7,3.6-.7h28.7c2,0,3.7.3,3.7.7l1.1,7.4C458.92,423.8,457.32,424.1,455.22,424.1Z"/><path class="cls-2" d="M407.32,424.1h-29.6c-2.1,0-3.7-.4-3.6-.8l1-7.4c.1-.4,1.7-.7,3.7-.7h28.7c2,0,3.6.3,3.6.7l-.1,7.4C411.12,423.8,409.42,424.1,407.32,424.1Z"/><path class="cls-2" d="M503.22,424.1h-29.6c-2.1,0-3.8-.4-3.9-.8l-1.4-7.4c-.1-.4,1.5-.7,3.5-.7h28.7c2,0,3.7.3,3.9.7l2.3,7.4C506.82,423.8,505.22,424.1,503.22,424.1Z"/><path class="cls-2" d="M551.12,424.1h-29.6c-2.1,0-3.9-.4-4-.8l-2.5-7.4c-.1-.4,1.4-.7,3.4-.7h28.7c2,0,3.8.3,4,.7l3.4,7.4C554.72,423.8,553.22,424.1,551.12,424.1Z"/><path class="cls-2" d="M599,424.1h-29.6c-2.1,0-3.9-.4-4.1-.8l-3.7-7.4c-.2-.4,1.3-.7,3.3-.7h28.7c2,0,3.8.3,4.1.7l4.6,7.4C602.52,423.8,601.12,424.1,599,424.1Z"/><path class="cls-2" d="M646.92,424.1h-29.6c-2.1,0-4-.4-4.3-.8l-4.9-7.4c-.3-.4,1.1-.7,3.1-.7h28.7c2,0,3.9.3,4.2.7l5.8,7.4C650.42,423.8,649,424.1,646.92,424.1Z"/><path class="cls-2" d="M213,402h-26.2c-1.9,0-3.2-.3-2.9-.7l2.1-2.6c.3-.4,2.1-.7,4-.7h25.9c1.9,0,3.2.3,3,.7l-1.8,2.6C216.72,401.7,215,402,213,402Z"/><path class="cls-2" d="M170.22,402H144c-1.9,0-3.2-.3-2.8-.7l2.5-2.6c.4-.4,2.2-.7,4.1-.7h25.9c1.9,0,3.2.3,2.9.7l-2.2,2.6A9.29,9.29,0,0,1,170.22,402Z"/><path class="cls-2" d="M255.92,402h-26.2c-1.9,0-3.3-.3-3-.7l1.7-2.6c.2-.4,2-.7,3.9-.7h25.9c1.9,0,3.3.3,3.1.7l-1.4,2.6C259.52,401.7,257.82,402,255.92,402Z"/><path class="cls-2" d="M298.82,402h-26.2c-1.9,0-3.3-.3-3.1-.7l1.3-2.6c.2-.4,1.9-.7,3.8-.7h25.9c1.9,0,3.3.3,3.2.7l-1,2.6C302.42,401.7,300.72,402,298.82,402Z"/><path class="cls-2" d="M384.52,402h-26.2c-1.9,0-3.4-.3-3.3-.7l.5-2.6c.1-.4,1.7-.7,3.6-.7H385c1.9,0,3.4.3,3.4.7l-.2,2.6C388,401.7,386.42,402,384.52,402Z"/><path class="cls-2" d="M341.62,402h-26.2c-1.9,0-3.4-.3-3.2-.7l.9-2.6c.1-.4,1.8-.7,3.7-.7h25.9c1.9,0,3.4.3,3.3.7l-.6,2.6C345.22,401.7,343.52,402,341.62,402Z"/><path class="cls-2" d="M427.32,402h-26.2c-1.9,0-3.5-.3-3.4-.7l.2-2.6c0-.4,1.6-.7,3.5-.7h25.9c1.9,0,3.4.3,3.5.7l.2,2.6C430.82,401.7,429.32,402,427.32,402Z"/><path class="cls-2" d="M470.22,402H444c-1.9,0-3.5-.3-3.5-.7l-.2-2.6c0-.4,1.5-.7,3.4-.7h25.9c1.9,0,3.5.3,3.6.7l.5,2.6C473.62,401.7,472.12,402,470.22,402Z"/><path class="cls-2" d="M513.12,402h-26.2c-1.9,0-3.5-.3-3.6-.7l-.6-2.6c-.1-.4,1.4-.7,3.3-.7h25.9c1.9,0,3.5.3,3.7.7l.9,2.6C516.42,401.7,515,402,513.12,402Z"/><path class="cls-2" d="M555.92,402h-26.2c-1.9,0-3.6-.3-3.7-.7l-1-2.6c-.1-.4,1.3-.7,3.2-.7h25.9c1.9,0,3.6.3,3.8.7l1.3,2.6C559.22,401.7,557.82,402,555.92,402Z"/><path class="cls-2" d="M598.82,402h-26.2c-1.9,0-3.6-.3-3.8-.7l-1.4-2.6c-.2-.4,1.2-.7,3.1-.7h25.9c1.9,0,3.6.3,3.9.7l1.7,2.6C602,401.7,600.72,402,598.82,402Z"/><path class="cls-2" d="M641.62,402h-26.2c-1.9,0-3.7-.3-3.9-.7l-1.8-2.6c-.3-.4,1.1-.7,3-.7h25.9c1.9,0,3.7.3,4,.7l2.1,2.6C644.92,401.7,643.52,402,641.62,402Z"/><path class="cls-2" d="M684.52,402h-26.2c-1.9,0-3.7-.3-4-.7l-2.2-2.6c-.3-.4,1-.7,2.9-.7h25.9c1.9,0,3.7.3,4.1.7l2.5,2.6C687.72,401.7,686.42,402,684.52,402Z"/><path class="cls-2" d="M677.52,415.2h-19.6c-2,0-3.3.4-2.9.9l5.8,7.2c.4.5,2.4.9,4.5.9h40.4c2.1,0,3.3-.4,2.8-.9l-7-7.2c-.5-.5-2.5-.9-4.5-.9Z"/><path class="cls-2" d="M162.72,404.3h-21c-1.9,0-3.9.4-4.3.8l-6.4,6.6c-.5.5.8.9,2.8.9h32.4c2,0,3.9-.4,4.3-.9l5.5-6.6c.4-.5-.9-.8-2.8-.8Z"/><path class="cls-2" d="M258.42,412.6h-28.5c-2,0-3.4-.3-3.1-.7l4.4-6.9c.2-.4,2-.7,3.9-.7h27.7c1.9,0,3.3.3,3.1.7l-3.6,6.9C262.22,412.3,260.42,412.6,258.42,412.6Z"/><path class="cls-2" d="M212.32,412.6h-28.5c-2,0-3.3-.3-3-.7l5.5-6.9c.3-.4,2.1-.7,4.1-.7h27.7c1.9,0,3.3.3,3,.7l-4.7,6.9C216.12,412.3,214.32,412.6,212.32,412.6Z"/><path class="cls-2" d="M304.52,412.6H276c-2,0-3.4-.3-3.3-.7L276,405c.2-.4,1.9-.7,3.8-.7h27.7c1.9,0,3.4.3,3.3.7l-2.5,6.9C308.32,412.3,306.52,412.6,304.52,412.6Z"/><path class="cls-2" d="M350.72,412.6h-28.5c-2,0-3.5-.3-3.4-.7l2.3-6.9c.1-.4,1.8-.7,3.7-.7h27.7c1.9,0,3.4.3,3.4.7l-1.4,6.9C354.32,412.3,352.62,412.6,350.72,412.6Z"/><path class="cls-2" d="M442.92,412.6h-28.5c-2,0-3.6-.3-3.6-.7l.1-6.9c0-.4,1.6-.7,3.5-.7h27.7c1.9,0,3.5.3,3.6.7l.8,6.9C446.42,412.3,444.92,412.6,442.92,412.6Z"/><path class="cls-2" d="M396.82,412.6h-28.5c-2,0-3.5-.3-3.5-.7L366,405c.1-.4,1.7-.7,3.6-.7h27.7c1.9,0,3.5.3,3.5.7l-.3,6.9C400.42,412.3,398.82,412.6,396.82,412.6Z"/><path class="cls-2" d="M489,412.6h-28.5c-2,0-3.7-.3-3.7-.7l-1-6.9c-.1-.4,1.5-.7,3.4-.7h27.7c1.9,0,3.6.3,3.7.7l1.8,6.9C492.52,412.3,491,412.6,489,412.6Z"/><path class="cls-2" d="M535.12,412.6h-28.5c-2,0-3.7-.3-3.8-.7l-2.1-6.9c-.1-.4,1.4-.7,3.3-.7h27.7c1.9,0,3.6.3,3.8.7l2.9,6.9C538.62,412.3,537.12,412.6,535.12,412.6Z"/><path class="cls-2" d="M581.22,412.6h-28.5c-2,0-3.8-.3-3.9-.7l-3.2-6.9c-.2-.4,1.2-.7,3.2-.7h27.7c1.9,0,3.7.3,3.9.7l4,6.9C584.62,412.3,583.22,412.6,581.22,412.6Z"/><path class="cls-2" d="M627.32,412.6h-28.5c-2,0-3.8-.3-4.1-.7l-4.3-6.9c-.2-.4,1.1-.7,3.1-.7h27.8c1.9,0,3.7.3,4,.7l5.1,6.9C630.72,412.3,629.32,412.6,627.32,412.6Z"/><path class="cls-2" d="M657.32,404.3h-18.9c-1.9,0-3.2.4-2.9.8l5.2,6.6c.4.5,2.3.9,4.3.9h49.8c2,0,3.2-.4,2.8-.9l-6.4-6.6c-.4-.5-2.4-.8-4.3-.8Z"/><path class="cls-2" d="M534.32,450H294.12c-2.2,0-3.9-.4-3.7-.9l3.3-8.7c.2-.5,2.1-.9,4.3-.9h232.5c2.2,0,4.1.4,4.3.9l3.3,8.7C538.22,449.6,536.62,450,534.32,450Z"/><path class="cls-1" d="M501.42,94a.43.43,0,0,0-.4.4v3.9a.4.4,0,0,0,.8,0V94.4A.43.43,0,0,0,501.42,94Z"/><path class="cls-1" d="M495.42,96.5a.42.42,0,1,0-.6.6l2.8,2.8a.5.5,0,0,0,.6,0,.37.37,0,0,0,0-.6Z"/><path class="cls-1" d="M492.42,103.3h3.9a.4.4,0,1,0,0-.8h-3.9a.43.43,0,0,0-.4.4C491.92,103.1,492.12,103.3,492.42,103.3Z"/><path class="cls-1" d="M497.22,106l-2.8,2.8a.37.37,0,0,0,0,.6.5.5,0,0,0,.6,0l2.8-2.8a.37.37,0,0,0,0-.6C497.62,105.8,497.32,105.8,497.22,106Z"/><path class="cls-1" d="M500.72,112.3a.43.43,0,0,0,.4-.4V108a.4.4,0,0,0-.8,0v3.9A.43.43,0,0,0,500.72,112.3Z"/><path class="cls-1" d="M504.52,106.4a.42.42,0,1,0-.6.6l2.8,2.8a.5.5,0,0,0,.6,0,.37.37,0,0,0,0-.6Z"/><path class="cls-1" d="M509.72,103h-3.9a.4.4,0,1,0,0,.8h3.9a.43.43,0,0,0,.4-.4A.37.37,0,0,0,509.72,103Z"/><path class="cls-1" d="M504.62,100.4a.37.37,0,0,0,.3-.1l2.8-2.8a.42.42,0,1,0-.6-.6l-2.8,2.8a.37.37,0,0,0,0,.6A.37.37,0,0,0,504.62,100.4Z"/><path class="cls-1" d="M590.92,302.3a.43.43,0,0,0,.4-.4V298a.4.4,0,0,0-.8,0v3.9A.43.43,0,0,0,590.92,302.3Z"/><path class="cls-1" d="M587.22,303.3a.5.5,0,0,0,.6,0,.37.37,0,0,0,0-.6l-2.8-2.8a.42.42,0,1,0-.6.6Z"/><path class="cls-1" d="M581.92,306.7h3.9a.4.4,0,1,0,0-.8h-3.9a.4.4,0,1,0,0,.8Z"/><path class="cls-1" d="M586.72,309.4l-2.8,2.8a.37.37,0,0,0,0,.6.5.5,0,0,0,.6,0l2.8-2.8a.37.37,0,0,0,0-.6C587.22,309.2,586.92,309.2,586.72,309.4Z"/><path class="cls-1" d="M590.32,315.7a.43.43,0,0,0,.4-.4v-3.9a.4.4,0,0,0-.8,0v3.9A.43.43,0,0,0,590.32,315.7Z"/><path class="cls-1" d="M596.22,313.2a.5.5,0,0,0,.6,0,.37.37,0,0,0,0-.6l-2.8-2.8a.42.42,0,1,0-.6.6Z"/><path class="cls-1" d="M594.92,306.9a.43.43,0,0,0,.4.4h3.9a.4.4,0,1,0,0-.8h-3.9A.43.43,0,0,0,594.92,306.9Z"/><path class="cls-1" d="M594.22,303.9a.37.37,0,0,0,.3-.1l2.8-2.8a.42.42,0,0,0-.6-.6l-2.8,2.8a.37.37,0,0,0,0,.6C594,303.8,594.12,303.9,594.22,303.9Z"/><path class="cls-1" d="M657.42,146.3h-4.2v-4.2a.4.4,0,0,0-.8,0v4.2h-4.2a.4.4,0,1,0,0,.8h4.2v4.2a.4.4,0,0,0,.8,0v-4.2h4.2a.4.4,0,1,0,0-.8Z"/><path class="cls-1" d="M446.52,156.1h4.2v4.2a.4.4,0,0,0,.8,0v-4.2h4.2a.4.4,0,1,0,0-.8h-4.2v-4.2a.4.4,0,0,0-.8,0v4.2h-4.2a.43.43,0,0,0-.4.4C446,155.9,446.22,156.1,446.52,156.1Z"/><path class="cls-1" d="M464.42,270.9h-4.2v-4.2a.4.4,0,0,0-.8,0v4.2h-4.2a.4.4,0,1,0,0,.8h4.2v4.2a.4.4,0,0,0,.8,0v-4.2h4.2a.43.43,0,0,0,.4-.4C464.92,271.1,464.72,270.9,464.42,270.9Z"/><path class="cls-1" d="M650.22,280.7H646v-4.2a.4.4,0,0,0-.8,0v4.2H641a.4.4,0,1,0,0,.8h4.2v4.2a.4.4,0,0,0,.8,0v-4.1h4.2a.43.43,0,0,0,.4-.4A.46.46,0,0,0,650.22,280.7Z"/><path class="cls-1" d="M613.32,103.1a3.2,3.2,0,1,0,3.2,3.2A3.1,3.1,0,0,0,613.32,103.1Zm0,5.6a2.4,2.4,0,1,1,2.4-2.4A2.43,2.43,0,0,1,613.32,108.7Z"/><path class="cls-1" d="M526.92,302.2a3.2,3.2,0,1,0,3.2,3.2A3.29,3.29,0,0,0,526.92,302.2Zm0,5.6a2.4,2.4,0,1,1,2.4-2.4A2.43,2.43,0,0,1,526.92,307.8Z"/><circle class="cls-1" cx="560.82" cy="95.1" r="0.6"/><path class="cls-1" d="M564.72,94.1a.64.64,0,1,0-.9,0,.6.6,0,0,0,.9,0Z"/><path class="cls-1" d="M564.22,87.4c.2,0,.3-.1.5-.2a.63.63,0,0,0,0-.9.64.64,0,1,0-.9.9A.76.76,0,0,0,564.22,87.4Z"/><path class="cls-1" d="M556.92,93.2a.56.56,0,0,0,0,.9h0a.76.76,0,0,0,.5.2c.2,0,.3-.1.5-.2a.56.56,0,0,0,0-.9A.67.67,0,0,0,556.92,93.2Z"/><path class="cls-1" d="M557.32,87.4c.2,0,.3-.1.5-.2a.64.64,0,1,0-.9-.9.63.63,0,0,0,0,.9A.76.76,0,0,0,557.32,87.4Z"/><path class="cls-1" d="M565.72,90.8c.4,0,.6-.3.6-.7h0c0-.4-.3-.6-.7-.6a.58.58,0,0,0-.6.6h0A.68.68,0,0,0,565.72,90.8Z"/><circle class="cls-1" cx="560.82" cy="85.3" r="0.6" transform="translate(-0.27 1.82) rotate(-0.19)"/><circle class="cls-1" cx="555.92" cy="90.2" r="0.6" transform="translate(-0.29 1.8) rotate(-0.19)"/><path class="cls-1" d="M441.12,211.8a.63.63,0,0,0,0,.9.76.76,0,0,0,.5.2c.2,0,.3-.1.5-.2a.56.56,0,0,0,0-.9A.67.67,0,0,0,441.12,211.8Z"/><circle class="cls-1" cx="440.12" cy="215.7" r="0.6" transform="translate(-0.68 1.4) rotate(-0.18)"/><path class="cls-1" d="M448,218.7a.56.56,0,0,0,0,.9.76.76,0,0,0,.5.2c.2,0,.3-.1.5-.2a.56.56,0,0,0,0-.9A.67.67,0,0,0,448,218.7Z"/><path class="cls-1" d="M448.52,212.9c.2,0,.3-.1.5-.2a.63.63,0,0,0,0-.9.64.64,0,1,0-.9.9C448.12,212.8,448.32,212.9,448.52,212.9Z"/><path class="cls-1" d="M449.92,215a.58.58,0,0,0-.6.6h0a.61.61,0,1,0,1.2,0h0C450.62,215.3,450.32,215,449.92,215Z"/><circle class="cls-1" cx="445.02" cy="210.8" r="0.6" transform="translate(-0.68 1.45) rotate(-0.19)"/><circle class="cls-1" cx="445.02" cy="220.6" r="0.6"/><path class="cls-1" d="M441.12,218.7a.56.56,0,0,0,0,.9h0a.76.76,0,0,0,.5.2c.2,0,.3-.1.5-.2a.56.56,0,0,0,0-.9A.67.67,0,0,0,441.12,218.7Z"/><path class="cls-1" d="M660.72,219.8c.2,0,.3-.1.5-.2a.63.63,0,0,0,0-.9.64.64,0,1,0-.9.9A.76.76,0,0,0,660.72,219.8Z"/><path class="cls-1" d="M662.22,222a.58.58,0,0,0-.6.6h0a.61.61,0,1,0,1.2,0h0A.65.65,0,0,0,662.22,222Z"/><path class="cls-1" d="M660.32,225.6a.56.56,0,0,0,0,.9.76.76,0,0,0,.5.2c.2,0,.3-.1.5-.2a.56.56,0,0,0,0-.9A.91.91,0,0,0,660.32,225.6Z"/><circle class="cls-1" cx="657.32" cy="217.7" r="0.6" transform="translate(-0.7 2.13) rotate(-0.19)"/><circle class="cls-1" cx="657.32" cy="227.5" r="0.6"/><path class="cls-1" d="M653.42,218.7a.63.63,0,0,0,0,.9.76.76,0,0,0,.5.2c.2,0,.3-.1.5-.2a.56.56,0,0,0,0-.9A.89.89,0,0,0,653.42,218.7Z"/><circle class="cls-1" cx="652.42" cy="222.6" r="0.6" transform="translate(-0.72 2.12) rotate(-0.19)"/><path class="cls-1" d="M653.42,225.6a.56.56,0,0,0,0,.9h0a.76.76,0,0,0,.5.2c.2,0,.3-.1.5-.2a.56.56,0,0,0,0-.9A.9.9,0,0,0,653.42,225.6Z"/><path class="cls-1" d="M604,255.9a12.6,12.6,0,1,0,12.6,12.6A12.61,12.61,0,0,0,604,255.9Zm0,18.8a6.1,6.1,0,1,1,6.1-6.1A6.12,6.12,0,0,1,604,274.7Z"/></g></g></g></svg>