<?xml version="1.0" encoding="utf-8"?>
<!-- Generator: Adobe Illustrator 21.0.2, SVG Export Plug-In . SVG Version: 6.00 Build 0)  -->
<svg version="1.1" id="Layer_1" xmlns="http://www.w3.org/2000/svg" xmlns:xlink="http://www.w3.org/1999/xlink" x="0px" y="0px"
	 viewBox="0 0 900 900" style="enable-background:new 0 0 900 900;" xml:space="preserve">
<style type="text/css">
	.st0{fill:#FEFDFD;}
	.st1{fill:#EA187A;}
	.st2{fill:#EB1A7B;}
</style>
<g>
	<g>
		<path class="st0" d="M450.5,901c-148.3,0-296.7,0-445,0.1c-3.7,0-4.6-0.8-4.6-4.6c0.1-297,0.1-594,0-891c0-3.7,0.8-4.6,4.6-4.6
			c297,0.1,594,0.1,891,0c3.7,0,4.6,0.8,4.6,4.6c-0.1,297-0.1,594,0,891c0,3.7-0.8,4.6-4.6,4.6C747.8,901,599.2,901,450.5,901z
			 M5.1,449.9c0,77.5,0,155,0,232.5c0,0.8,0.1,1.7,0,2.5c-0.2,2.3,0.8,3.4,3.1,3.4c1.5,0,3,0,4.5,0c153.8,0,307.6,0,461.4,0
			c1,0,2-0.1,3,0c3.2,0.3,4.4-1.1,4.4-4.3c-0.1-17-0.1-34,0-51c0-3.7-1.1-5.5-5.1-5.4c-7.2,0.2-14.3,0.1-21.5,0
			c-3.4-0.1-4.8,1.3-4.7,4.7c0.1,6.3-0.3,12.7,0.2,19c0.4,5.2-1.4,6.4-6.4,6.4c-133.8-0.1-267.6-0.1-401.4,0c-4.7,0-6.1-1.2-6.1-6.1
			c0.1-134,0.1-268,0.1-401.9c0-7,0-7,7-7c133.1,0,266.3,0,399.4,0c1,0,2,0.1,3,0c3.2-0.3,4.4,0.9,4.3,4.3c-0.2,7.5-0.1,15-0.1,22.5
			c0,70,0,140,0,210c0,7.3,0,7.3,7.5,7.3c5.5,0,11,0,16.5,0c7.2,0,7.2,0,7.2-7.1c0-87.3,0-174.6,0.1-262c0-4.3-1.2-5.7-5.6-5.7
			c-155.1,0.1-310.3,0.1-465.4,0c-4.4,0-5.5,1.3-5.5,5.7C5.2,294.9,5.1,372.4,5.1,449.9z M185,557.8c10.4,17.6,20.6,34.7,30.5,51.9
			c1.8,3.2,3.9,4.5,7.5,4.3c6-0.2,12-0.3,18,0c4.3,0.2,5.4-1.5,5.4-5.5c-0.1-34.2-0.1-68.3,0-102.5c0-3.9-1.1-5.8-5.4-5.6
			c-6.3,0.3-12.7,0.3-19,0c-4.2-0.2-5.6,1.5-5.5,5.5c0.2,13,0.2,26,0.2,39c0,1.4,0.6,3-1,4.1c-1.2-0.1-1.5-1.2-2-2
			c-8-13.8-16-27.6-23.9-41.4c-1.6-2.9-3.4-5.2-7.2-5.1c-7.7,0.2-15.3,0.1-23,0c-3.6,0-5,1.6-5,5.2c0.2,20.3,0.3,40.6,0.3,61
			c0,13.8-0.1,27.7-0.3,41.5c-0.1,4.3,1.1,6.4,6,6c5.8-0.5,11.7-0.3,17.5,0c4.3,0.2,5.8-1.1,5.8-5.6c-0.3-15-0.1-30-0.1-45
			C183.8,561.8,183.1,559.8,185,557.8z M260.4,557.5c0,17.2,0,34.3,0,51.5c0,2.7,0,5.1,3.7,5c18.3-0.4,36.6,1,54.8-1.9
			c15.4-2.4,25.7-12.2,29.3-27.4c3.7-16.1,3.7-32.3,1.4-48.5c-1.7-12-6.2-22.9-17.4-29.4c-8.4-4.8-17.9-6-27.4-6.3
			c-12.8-0.4-25.6,0.1-38.5-0.2c-4.7-0.1-6.1,1.6-6,6.1C260.5,523.5,260.4,540.5,260.4,557.5z M898.1,560.3
			c-0.1-11.7,0.1-20.1-2.3-28.5c-3.8-13.7-11-24.3-24.7-29.2c-12.8-4.6-26.2-4.5-39.4-1.5c-15.6,3.5-25.1,13.5-29.2,28.8
			c-4.7,17-4.6,34.3-1,51.4c3.1,14.7,11.4,25.7,26.2,30.7c11.5,3.9,23.4,3.8,35.1,1.8c15.7-2.6,26.4-11.5,31.6-26.9
			C897.7,577.1,898.4,567.1,898.1,560.3z M589.5,557.1c-0.4,8.3,0.2,16.6,2.2,24.7c3.8,15.3,12.2,26.3,28,30.8
			c11,3.1,22.2,3.3,33.2,1.2c21-3.9,30.2-16.9,33.7-35.3c2.7-14,2.7-28.1,0.1-42.1c-3.1-16.7-11.3-30.6-30.2-35.1
			c-12.3-2.9-24.7-2.9-37,0.5c-12.7,3.5-21.1,11.6-25.6,23.8C590.1,535.7,589,546.3,589.5,557.1z M789.4,579c0-9.8-0.1-19.7,0-29.5
			c0-2.7-0.4-4.5-3.7-4.4c-12.5,0.1-25,0.1-37.5,0c-2.2,0-3.2,0.7-3.5,3.1c-0.6,5.8-1.5,11.5-2.4,17.3c-0.6,3.6,0.8,4.8,4.3,4.6
			c3.3-0.2,6.7,0,10-0.1c2,0,3.6,0.5,4.2,2.7c2.6,8.8-2,15.7-11,16.5c-1.3,0.1-2.7,0.1-4,0c-8-0.2-12.3-2.7-14.3-10.4
			c-3.5-12.9-3.3-26-0.1-38.9c1.9-7.7,6.7-10.7,14.7-10.9c6.4-0.2,12.8,0.4,18.5,3.4c3.6,1.9,5,0.6,6.7-2.1
			c3.7-5.9,7.5-11.8,11.4-17.6c2.1-3.1,1.8-4.9-1.7-6.6c-15.3-7.5-31.4-8.3-47.8-5.5c-18,3.1-29,14.1-32.6,32
			c-3.3,16.1-3.5,32.5-0.2,48.6c4.6,22.2,17.2,32.9,38.9,33.6c15.5,0.5,30.9-1.4,46.4-0.7c3.3,0.1,3.8-1.8,3.8-4.5
			C789.4,599.3,789.4,589.2,789.4,579z M579.4,579.5c0-10-0.1-20,0.1-30c0.1-3.2-0.9-4.5-4.2-4.4c-12.2,0.1-24.3,0.1-36.5,0
			c-2.4,0-3.6,0.6-3.9,3.3c-0.7,6.1-1.8,12.2-2.7,18.2c-0.4,2.6,1,3.6,3.5,3.5c3.8-0.1,7.7,0,11.5,0c1.3,0,2.7-0.1,3.5,1.3
			c2.1,3.3-0.2,14-3.5,16.2c-9.1,6.1-24.3,0.2-26.4-10.5c-2.3-11.7-2.7-23.4-0.1-35.2c1.9-8.4,6.6-12.5,15.4-12.8
			c6-0.3,12,0.1,17.5,2.9c3.8,2,6.1,1.5,8.3-2.5c3.2-5.8,6.9-11.4,10.8-16.8c2.4-3.4,2-4.9-1.7-6.7c-15.7-7.5-32.1-8.3-48.8-5.2
			c-18.1,3.4-28.4,14.9-31.9,32.7c-3,15.7-3.1,31.4-0.1,47.1c3.5,18.5,14.3,32,35.6,33.9c16.1,1.4,32.3-1.4,48.4-0.4
			c4.1,0.3,5.3-1.3,5.2-5.1C579.3,599.1,579.4,589.3,579.4,579.5z M406.1,557.1c0,17.3,0,34.7,0,52c0,2.5-0.5,5,3.6,4.9
			c22.5-0.1,45-0.1,67.5,0c3.3,0,4.4-1.3,4.3-4.4c-0.2-6.2-0.3-12.3,0.1-18.5c0.3-4.2-1.5-5.1-5.2-5c-9.8,0.2-19.7,0.2-29.5,0
			c-12.9-0.2-10.6,2.6-10.9-11.6c-0.1-3.5,1.4-4.6,4.8-4.5c7,0.2,14,0,21,0.1c2.4,0,4.3-0.6,4.6-3.4c0.8-6.6,1.5-13.2,2.5-19.8
			c0.5-3.4-0.9-4-3.8-3.9c-6.7,0.1-13.3,0.1-20,0c-10.5-0.1-8.7,1.3-9.1-9c-0.2-4.5,1.5-5.7,5.8-5.6c11,0.3,22,0.1,33,0.1
			c6.8,0,6.8,0,6.8-7c0-5-0.3-10,0.1-15c0.3-4.6-1.4-6.1-6-6.1c-21.3,0.2-42.7,0.2-64,0c-4.6-0.1-5.6,1.5-5.5,5.7
			C406.3,523.1,406.1,540.1,406.1,557.1z M110.2,557.5c0,17.1,0.1,34.3-0.1,51.4c0,3.9,1.1,5.3,5.1,5.1c6.8-0.3,13.6-0.2,20.5,0
			c3.5,0.1,5.1-0.9,5-4.7c-0.1-34.6-0.1-69.2,0-103.8c0-3.7-1.3-5.1-5-5c-6.7,0.2-13.3,0.3-20,0c-4.5-0.2-5.7,1.4-5.6,5.7
			C110.3,523.3,110.2,540.4,110.2,557.5z M360.9,557c0,17.5,0.1,35,0,52.5c0,3.3,0.8,4.8,4.5,4.6c7.2-0.3,14.3-0.2,21.5,0
			c3.3,0.1,4.8-0.8,4.8-4.4c-0.1-34.8-0.1-69.6,0-104.5c0-3.2-1.2-4.5-4.4-4.4c-6.7,0.2-13.3,0.4-20,0c-5-0.3-6.6,1-6.5,6.3
			C361.1,523.7,360.9,540.3,360.9,557z M631,322.3c0,5,0,10,0,15c0,11.4,0,11.3,11.4,10.8c2.7-0.1,3.4-1,3.4-3.5
			c-0.1-7.2-0.1-14.3,0-21.5c0-7.2-0.1-14.3,0.2-21.5c0.3-5.3,4-8,9.6-8c5.6,0.1,9.1,3,9.5,8.2c0.7,7.9-2.1,11-10.5,11.7
			c-1.7,0.1-4.2-0.7-4,2.3c0.3,4-1.2,8.2,1,12c0.1,0.3,0.9,0.2,1.4,0.2c13.5,0.5,24.7-3.6,26.7-19.8c2.2-16.9-5.1-27.4-20.2-29.2
			C641.3,277,631,286,631,304.3C631,310.3,631,316.3,631,322.3z M688,322.6c0,5.2,0,10.3,0,15.5c0,10,0,9.7,9.7,10
			c4.3,0.1,5.2-1.4,5.1-5.4c-0.3-12.8-0.1-25.7-0.1-38.5c0-3.8,0.4-7.5,4.4-9.4c4-1.8,8.2-1.9,11.9,0.7c4,2.9,3.6,7.3,2.8,11.5
			c-0.8,4.5-4.4,5.9-8.5,6.3c-1,0.1-2,0.2-3,0.1c-2.8-0.2-3.1,1.7-2.7,3.6c0.8,3.6-2.6,9.6,1.8,10.5c7.5,1.6,15.6,0.4,21.3-5.8
			c7.8-8.5,7.5-18.8,4.5-29.2c-2.7-9.1-9.9-12.4-18.5-13.5c-18.1-2.3-28.5,6.8-28.6,25C688,310.3,688,316.4,688,322.6z M546.1,311
			c-4.8,2.6-4.8,2.6-15.8,2.6c-11.1,0-11,0-10.5,11.3c0.1,2.4,0.8,3.2,3.1,3.1c6.5-0.1,13,0.3,19.5-0.1c12.8-0.7,19.7-7.4,21.2-20.2
			c0.3-2.5,0.1-5,0.3-7.5c0.3-2.9-0.9-3.7-3.7-3.7c-7.8,0.2-15.7,0.1-23.5,0c-1.1,0-2.7,0.8-3.5-1.1c4.8-2.9,10-2,15.1-2.1
			c11.1-0.1,11,0,10.7-11.1c-0.1-2.6-0.7-3.5-3.4-3.4c-6.2,0.2-12.3-0.1-18.5,0.1c-13.6,0.4-21.5,8.3-22.2,21.9
			c-0.1,2.2,0.1,4.3-0.1,6.5c-0.3,2.9,0.9,3.7,3.6,3.6C527.4,310.9,536.3,311,546.1,311z M603.2,398c-4.6,3.2-9.6,2.6-14.5,2.6
			c-11.6,0.1-11.5,0-10.9,11.5c0.1,2.5,1,3,3.3,3c6.3-0.1,12.7,0.2,19-0.1c12.8-0.6,19.9-7.2,21.5-19.9c0.3-2,0.1-4,0.4-6
			c0.6-4.2-0.7-5.9-5.3-5.6c-8.4,0.4-16.8,0.1-26.2,0.1c2.8-3,5.5-3,8-3.1c5.2-0.3,10.3-0.1,15.5-0.1c1.9,0,3.5-0.3,3-2.7
			c-0.7-3.9,1.8-8.2-1.4-11.6c-0.4-0.4-1.6-0.1-2.4-0.1c-5.7,0-11.3-0.1-17,0c-14.4,0.2-22.6,8.2-23.1,22.6c-0.1,1.5,0.1,3-0.1,4.5
			c-0.5,3.7,0.6,5.2,4.8,5C586.2,397.8,594.7,398,603.2,398z M746,303.4c0,16.2,8.1,24.6,23.9,24.6c16.7,0.1,25-8.2,25-24.6
			c0-16-8.3-24.4-24.3-24.4C754.2,279,746,287.1,746,303.4z M654,390.4c0,16.2,8.1,24.6,24,24.6c16.6,0.1,25-8.2,25-24.7
			c-0.1-16-8.3-24.3-24.3-24.4C662.2,366,654,374.1,654,390.4z M621.7,294.3c0.1,0,0.1,0,0.2,0c0-1.5,0-3,0-4.5
			c0-11.3,0-11.1-11.3-10.9c-2.9,0.1-3.7,0.9-3.6,3.7c0.2,6.8,0.1,13.6,0,20.5c0,6.9-3,10.1-9.3,10.3c-6.5,0.2-9.8-3.1-10-10.2
			c-0.1-6.8-0.1-13.6,0-20.5c0.1-2.7-0.6-4-3.6-3.8c-2.6,0.2-5.3,0.2-8,0c-2.2-0.1-3.3,0.4-3.3,3c0.2,8.3-0.2,16.6,0.2,24.9
			c0.5,10.2,5.6,17.2,14,19.8c5,1.5,10.1,1.9,15.3,1.1c12.2-1.9,18.2-8.2,19.3-20.4C622,303,621.7,298.6,621.7,294.3z M515,381.2
			C515,381.2,515,381.2,515,381.2c0.1,4-0.1,8,0.1,12c0.6,12.8,7.1,20.2,19.7,21.6c17.4,1.8,29.1-4.8,29.1-24.7c0-4.3,0-8.6,0-13
			c0-11.6,0-11.5-11.6-11.1c-2.7,0.1-3.3,1-3.3,3.5c0.1,7.3,0.1,14.6,0,22c-0.1,5.8-3.2,8.7-9.1,9c-6,0.3-9.7-2.7-10-8.5
			c-0.3-5.1-0.1-10.3-0.1-15.5c0-10.6,0-10.5-10.8-10.5c-2.9,0-4.2,0.6-4,3.8C515.2,373.5,515,377.4,515,381.2z M712.3,399.4
			c-0.1,0-0.2,0-0.3,0c0,1.7,0,3.3,0,5c0,11,0,10.8,11,10.7c3.3,0,3.8-1.3,3.8-4.1c-0.2-6.6-0.1-13.3,0-20
			c0.1-7.2,3.3-10.5,9.8-10.4c6.5,0.1,9.5,3.4,9.5,10.6c0,7,0.1,14,0,21c-0.1,2.7,1.4,3.3,3.4,2.8c3.8-1,10.5,2.9,11.1-2.1
			c1.1-10.1,1.5-20.6-0.6-30.8c-1.5-7.4-6.1-12.5-13.4-14.7c-5.3-1.6-10.8-1.9-16.3-0.9c-10.7,2-16.5,7.6-17.8,18.5
			C711.8,389.7,712.3,394.6,712.3,399.4z M842,284.3C842,284.3,842,284.3,842,284.3c0.1,7.3-0.2,14.7,0.1,22
			c0.5,12.4,6.8,19.3,18.9,21.3c10.2,1.7,10.2,1.7,10.2-8.6c0-0.3,0-0.7,0-1c0.5-3.3-0.6-4.6-4.2-4.7c-7.9-0.3-10.1-3-10.2-10.9
			c0-1.3,0.2-2.7,0-4c-0.6-4.1,1.2-5,5-4.9c9.5,0.2,9.2,0,9.6-9.2c0.2-4.7-1.4-5.5-5.6-5.3c-9,0.3-9,0.1-9-9.1
			c0-11.3,0-11.2-11.4-10.9c-2.6,0.1-3.4,0.8-3.4,3.4C842.1,269.7,842,277,842,284.3z M804,311.5c0,2.4,0,4.1,0,5.7
			c0,11.3,0,11.2,11.3,10.9c3.1-0.1,3.5-1.3,3.5-3.9c-0.1-6-0.1-12,0-17.9c0-10.2,1.2-11.6,11.5-12.7c2-0.2,3.3-0.7,2.9-2.9
			c-0.7-3.9,1.8-8.1-1.4-11.6c-0.1-0.1-0.3,0-0.5-0.1c-12.5-2.7-24.3,5.2-26.7,17.8C803.5,301.9,804.2,307.1,804,311.5z"/>
		<path class="st1" d="M5.1,449.9c0-77.5,0-155-0.1-232.5c0-4.4,1.1-5.7,5.5-5.7c155.1,0.1,310.3,0.1,465.4,0c4.4,0,5.6,1.4,5.6,5.7
			c-0.1,87.3-0.1,174.6-0.1,262c0,7.1,0,7.1-7.2,7.1c-5.5,0-11,0-16.5,0c-7.5,0-7.5,0-7.5-7.3c0-70,0-140,0-210
			c0-7.5-0.1-15,0.1-22.5c0.1-3.3-1.1-4.6-4.3-4.3c-1,0.1-2,0-3,0c-133.1,0-266.3,0-399.4,0c-7,0-7,0-7,7c0,134,0,268-0.1,401.9
			c0,4.9,1.4,6.1,6.1,6.1c133.8-0.1,267.6-0.1,401.4,0c5,0,6.8-1.2,6.4-6.4c-0.5-6.3,0-12.7-0.2-19c-0.1-3.4,1.3-4.8,4.7-4.7
			c7.2,0.1,14.3,0.2,21.5,0c4-0.1,5.1,1.7,5.1,5.4c-0.1,17-0.1,34,0,51c0,3.3-1.2,4.6-4.4,4.3c-1-0.1-2,0-3,0
			c-153.8,0-307.6,0-461.4,0c-1.5,0-3-0.1-4.5,0c-2.3,0-3.4-1-3.1-3.4c0.1-0.8,0-1.7,0-2.5C5.2,604.8,5.1,527.3,5.1,449.9z"/>
		<path class="st2" d="M185,557.8c-2,2-1.3,3.9-1.3,5.6c0,15-0.2,30,0.1,45c0.1,4.5-1.5,5.8-5.8,5.6c-5.8-0.3-11.7-0.4-17.5,0
			c-4.9,0.4-6-1.7-6-6c0.2-13.8,0.3-27.7,0.3-41.5c0-20.3-0.1-40.6-0.3-61c0-3.6,1.3-5.2,5-5.2c7.7,0.1,15.3,0.1,23,0
			c3.8-0.1,5.6,2.2,7.2,5.1c7.9,13.8,16,27.6,23.9,41.4c0.5,0.8,0.8,1.9,2,2c1.6-1,1-2.6,1-4.1c-0.1-13,0-26-0.2-39
			c-0.1-4.1,1.3-5.7,5.5-5.5c6.3,0.3,12.7,0.3,19,0c4.3-0.2,5.4,1.7,5.4,5.6c-0.1,34.2-0.1,68.3,0,102.5c0,4-1.1,5.7-5.4,5.5
			c-6-0.3-12-0.3-18,0c-3.6,0.1-5.7-1.1-7.5-4.3C205.6,592.5,195.4,575.4,185,557.8z"/>
		<path class="st2" d="M260.4,557.5c0-17,0.1-34-0.1-51c-0.1-4.5,1.3-6.2,6-6.1c12.8,0.2,25.7-0.2,38.5,0.2c9.5,0.3,19,1.5,27.4,6.3
			c11.3,6.5,15.7,17.4,17.4,29.4c2.3,16.2,2.3,32.4-1.4,48.5c-3.5,15.2-13.9,24.9-29.3,27.4c-18.2,2.9-36.5,1.4-54.8,1.9
			c-3.7,0.1-3.7-2.4-3.7-5C260.4,591.8,260.4,574.7,260.4,557.5z M290.9,557.7c0,5.8,0,11.6,0,17.5c0,13,0,13,13,11.7
			c8.6-0.8,11.9-3.9,14.3-12c2.6-8.8,1.9-17.8,1.5-26.7c-0.7-15.4-5.9-19.9-21.1-19.9c-0.8,0-1.7,0.1-2.5,0
			c-3.9-0.5-5.4,1.1-5.2,5.1C291.1,541.4,290.9,549.5,290.9,557.7z"/>
		<path class="st2" d="M898.1,560.3c0.3,6.9-0.4,16.8-3.7,26.7c-5.3,15.4-15.9,24.3-31.6,26.9c-11.7,2-23.6,2-35.1-1.8
			c-14.8-5-23.1-16-26.2-30.7c-3.6-17.1-3.7-34.4,1-51.4c4.2-15.2,13.7-25.3,29.2-28.8c13.2-3,26.5-3,39.4,1.5
			c13.7,4.9,20.9,15.5,24.7,29.2C898.1,540.1,897.9,548.5,898.1,560.3z M867.3,556.5c0.1-3.4-0.6-8.6-1.5-13.9
			c-1.3-8.1-6.2-12.7-14.3-13.6c-9.8-1.1-16.3,1.9-18.8,10c-3.8,12.1-3.3,24.7-0.6,36.9c2,9,9.2,12.8,18.7,12
			c8.3-0.7,13.3-5.7,15.1-14.7C866.9,568.4,867.2,563.4,867.3,556.5z"/>
		<path class="st2" d="M589.5,557.1c-0.5-10.8,0.6-21.4,4.3-31.5c4.5-12.2,12.9-20.3,25.6-23.8c12.3-3.4,24.7-3.4,37-0.5
			c18.9,4.5,27.1,18.4,30.2,35.1c2.6,14,2.6,28.2-0.1,42.1c-3.5,18.4-12.7,31.4-33.7,35.3c-11,2-22.2,1.9-33.2-1.2
			c-15.8-4.5-24.2-15.5-28-30.8C589.7,573.7,589.1,565.4,589.5,557.1z M656.9,558.6c-0.1-5,0.1-10-0.6-14.9
			c-1.3-8.9-7.2-14.5-16-14.7c-11.1-0.3-16.4,3.8-18.6,13.8c-2.4,11.1-1.8,22.1,0.3,33.1c1.3,6.7,7.2,11.4,14.7,12.1
			c8.5,0.8,15.2-3,17.9-9.7C657.2,571.9,656.8,565.2,656.9,558.6z"/>
		<path class="st2" d="M789.4,579c0,10.2,0,20.3,0,30.5c0,2.7-0.5,4.6-3.8,4.5c-15.5-0.6-31,1.3-46.4,0.7
			c-21.7-0.7-34.3-11.5-38.9-33.6c-3.4-16.1-3.1-32.5,0.2-48.6c3.7-17.8,14.7-28.9,32.6-32c16.3-2.8,32.5-2,47.8,5.5
			c3.5,1.7,3.8,3.5,1.7,6.6c-3.9,5.8-7.7,11.7-11.4,17.6c-1.7,2.8-3.1,4-6.7,2.1c-5.7-3-12.1-3.5-18.5-3.4
			c-8,0.2-12.8,3.2-14.7,10.9c-3.2,12.9-3.3,26.1,0.1,38.9c2.1,7.8,6.3,10.2,14.3,10.4c1.3,0,2.7,0.1,4,0c9-0.8,13.6-7.7,11-16.5
			c-0.6-2.2-2.2-2.7-4.2-2.7c-3.3,0-6.7-0.2-10,0.1c-3.5,0.2-4.9-1-4.3-4.6c0.9-5.7,1.8-11.5,2.4-17.3c0.3-2.4,1.2-3.1,3.5-3.1
			c12.5,0.1,25,0.1,37.5,0c3.3,0,3.8,1.7,3.7,4.4C789.4,559.3,789.4,569.2,789.4,579z"/>
		<path class="st2" d="M579.4,579.5c0,9.8-0.1,19.7,0,29.5c0.1,3.8-1.2,5.4-5.2,5.1c-16.1-1-32.3,1.8-48.4,0.4
			c-21.3-1.8-32.1-15.3-35.6-33.9c-3-15.7-3-31.4,0.1-47.1c3.5-17.8,13.8-29.3,31.9-32.7c16.7-3.1,33.1-2.4,48.8,5.2
			c3.7,1.8,4.1,3.3,1.7,6.7c-3.9,5.4-7.6,11-10.8,16.8c-2.2,4-4.5,4.5-8.3,2.5c-5.5-2.8-11.5-3.2-17.5-2.9
			c-8.8,0.4-13.5,4.5-15.4,12.8c-2.6,11.7-2.2,23.5,0.1,35.2c2.1,10.7,17.3,16.6,26.4,10.5c3.3-2.2,5.6-12.9,3.5-16.2
			c-0.9-1.4-2.2-1.3-3.5-1.3c-3.8,0-7.7-0.1-11.5,0c-2.5,0.1-3.9-0.8-3.5-3.5c0.9-6.1,2-12.1,2.7-18.2c0.3-2.6,1.5-3.3,3.9-3.3
			c12.2,0.1,24.3,0.1,36.5,0c3.4,0,4.3,1.2,4.2,4.4C579.3,559.5,579.4,569.5,579.4,579.5z"/>
		<path class="st2" d="M406.1,557.1c0-17,0.1-34-0.1-51c0-4.2,1-5.8,5.5-5.7c21.3,0.2,42.7,0.2,64,0c4.6,0,6.3,1.5,6,6.1
			c-0.3,5-0.1,10-0.1,15c0,7,0,7-6.8,7c-11,0-22,0.2-33-0.1c-4.3-0.1-6,1.1-5.8,5.6c0.4,10.3-1.4,8.9,9.1,9c6.7,0.1,13.3,0.1,20,0
			c2.9-0.1,4.3,0.6,3.8,3.9c-1,6.6-1.7,13.2-2.5,19.8c-0.3,2.8-2.2,3.4-4.6,3.4c-7,0-14,0.1-21-0.1c-3.4-0.1-4.9,1.1-4.8,4.5
			c0.3,14.2-2,11.4,10.9,11.6c9.8,0.2,19.7,0.2,29.5,0c3.7-0.1,5.5,0.8,5.2,5c-0.4,6.1-0.2,12.3-0.1,18.5c0.1,3.2-1,4.5-4.3,4.4
			c-22.5-0.1-45-0.1-67.5,0c-4.1,0-3.6-2.4-3.6-4.9C406.1,591.8,406.1,574.5,406.1,557.1z"/>
		<path class="st2" d="M110.2,557.5c0-17.1,0.1-34.3-0.1-51.4c-0.1-4.3,1.1-5.9,5.6-5.7c6.6,0.4,13.3,0.2,20,0c3.7-0.1,5,1.3,5,5
			c-0.1,34.6-0.1,69.2,0,103.8c0,3.9-1.5,4.8-5,4.7c-6.8-0.2-13.7-0.3-20.5,0c-4,0.2-5.1-1.2-5.1-5.1
			C110.3,591.8,110.2,574.7,110.2,557.5z"/>
		<path class="st1" d="M360.9,557c0-16.7,0.2-33.3-0.1-50c-0.1-5.2,1.5-6.6,6.5-6.3c6.6,0.4,13.3,0.2,20,0c3.3-0.1,4.4,1.2,4.4,4.4
			c-0.1,34.8-0.1,69.6,0,104.5c0,3.6-1.5,4.5-4.8,4.4c-7.2-0.2-14.3-0.3-21.5,0c-3.7,0.2-4.5-1.3-4.5-4.6
			C361,592,360.9,574.5,360.9,557z"/>
		<path class="st1" d="M631,322.3c0-6,0-12,0-18c0-18.3,10.3-27.3,28.4-25.2c15.1,1.8,22.4,12.2,20.2,29.2
			c-2,16.1-13.2,20.3-26.7,19.8c-0.5,0-1.3,0.1-1.4-0.2c-2.2-3.8-0.7-8-1-12c-0.2-3,2.3-2.1,4-2.3c8.4-0.7,11.2-3.8,10.5-11.7
			c-0.4-5.2-3.9-8.1-9.5-8.2c-5.6-0.1-9.3,2.7-9.6,8c-0.4,7.1-0.2,14.3-0.2,21.5c0,7.2-0.1,14.3,0,21.5c0,2.5-0.7,3.4-3.4,3.5
			c-11.4,0.4-11.4,0.5-11.4-10.8C631,332.3,631,327.3,631,322.3z"/>
		<path class="st1" d="M688,322.6c0-6.2,0-12.3,0-18.5c0.1-18.2,10.5-27.3,28.6-25c8.7,1.1,15.9,4.5,18.5,13.5
			c3,10.3,3.3,20.6-4.5,29.2c-5.7,6.2-13.8,7.4-21.3,5.8c-4.4-1-1-6.9-1.8-10.5c-0.4-1.9-0.1-3.8,2.7-3.6c1,0.1,2-0.1,3-0.1
			c4.1-0.4,7.7-1.8,8.5-6.3c0.8-4.1,1.2-8.6-2.8-11.5c-3.7-2.6-7.9-2.6-11.9-0.7c-4,1.8-4.4,5.6-4.4,9.4c0,12.8-0.2,25.7,0.1,38.5
			c0.1,4-0.7,5.5-5.1,5.4c-9.7-0.3-9.7-0.1-9.7-10C688,332.9,688,327.8,688,322.6z"/>
		<path class="st1" d="M546.1,311c-9.9,0-18.7-0.1-27.5,0.1c-2.8,0.1-4-0.7-3.6-3.6c0.2-2.1,0-4.3,0.1-6.5
			c0.7-13.6,8.6-21.5,22.2-21.9c6.2-0.2,12.3,0.1,18.5-0.1c2.7-0.1,3.3,0.9,3.4,3.4c0.3,11,0.4,11-10.7,11.1
			c-5.1,0-10.3-0.8-15.1,2.1c0.9,1.9,2.4,1.1,3.5,1.1c7.8,0.1,15.7,0.1,23.5,0c2.8-0.1,4,0.8,3.7,3.7c-0.2,2.5,0,5-0.3,7.5
			c-1.5,12.8-8.3,19.5-21.2,20.2c-6.5,0.4-13,0-19.5,0.1c-2.4,0.1-3-0.8-3.1-3.1c-0.6-11.3-0.6-11.3,10.5-11.3
			C541.3,313.6,541.3,313.6,546.1,311z"/>
		<path class="st1" d="M603.2,398c-8.5,0-17-0.3-25.5,0.1c-4.1,0.2-5.3-1.3-4.8-5c0.2-1.5,0-3,0.1-4.5c0.5-14.3,8.7-22.4,23.1-22.6
			c5.7-0.1,11.3,0,17,0c0.8,0,2-0.3,2.4,0.1c3.2,3.5,0.7,7.8,1.4,11.6c0.4,2.3-1.1,2.7-3,2.7c-5.2-0.1-10.3-0.2-15.5,0.1
			c-2.4,0.1-5.2,0.1-8,3.1c9.4,0,17.8,0.3,26.2-0.1c4.6-0.2,5.9,1.4,5.3,5.6c-0.3,2-0.1,4-0.4,6c-1.6,12.7-8.7,19.3-21.5,19.9
			c-6.3,0.3-12.7,0-19,0.1c-2.2,0-3.1-0.5-3.3-3c-0.6-11.4-0.7-11.4,10.9-11.5C593.6,400.6,598.6,401.2,603.2,398z"/>
		<path class="st1" d="M746,303.4c0-16.3,8.2-24.4,24.7-24.4c15.9,0,24.2,8.3,24.3,24.4c0.1,16.4-8.3,24.7-25,24.6
			C754.1,327.9,746,319.6,746,303.4z M760.7,303.6c0,6.5,3.5,9.9,9.9,9.8c6.4-0.1,9.5-3.5,9.4-10.2c-0.1-6.2-3.4-9.6-9.6-9.6
			C764.1,293.6,760.7,297.1,760.7,303.6z"/>
		<path class="st1" d="M654,390.4c0-16.3,8.2-24.4,24.7-24.4c15.9,0,24.2,8.3,24.3,24.4c0.1,16.4-8.3,24.7-25,24.7
			C662.1,414.9,654,406.6,654,390.4z M688.1,390.4c0-6.5-3.5-9.9-9.9-9.7c-6.2,0.2-9.4,3.5-9.4,9.8c0,6.5,3.4,10,9.7,10
			C684.8,400.4,688.1,397,688.1,390.4z"/>
		<path class="st1" d="M621.7,294.3c0,4.3,0.3,8.7-0.1,13c-1,12.3-7.1,18.6-19.3,20.4c-5.2,0.8-10.3,0.4-15.3-1.1
			c-8.4-2.5-13.5-9.5-14-19.8c-0.4-8.3,0-16.6-0.2-24.9c-0.1-2.6,1-3.1,3.3-3c2.7,0.1,5.3,0.2,8,0c3-0.3,3.6,1,3.6,3.8
			c-0.1,6.8-0.1,13.6,0,20.5c0.1,7.1,3.4,10.4,10,10.2c6.4-0.2,9.3-3.3,9.3-10.3c0-6.8,0.1-13.6,0-20.5c-0.1-2.8,0.7-3.7,3.6-3.7
			c11.3-0.2,11.3-0.4,11.3,10.9c0,1.5,0,3,0,4.5C621.9,294.3,621.8,294.3,621.7,294.3z"/>
		<path class="st1" d="M515,381.2c0-3.8,0.2-7.7-0.1-11.5c-0.3-3.2,1-3.8,4-3.8c10.8,0,10.8-0.2,10.8,10.5c0,5.2-0.1,10.3,0.1,15.5
			c0.3,5.8,4,8.8,10,8.5c5.9-0.3,9-3.2,9.1-9c0.1-7.3,0.1-14.6,0-22c0-2.5,0.6-3.4,3.3-3.5c11.6-0.4,11.6-0.5,11.6,11.1
			c0,4.3,0,8.6,0,13c0,20-11.7,26.6-29.1,24.7c-12.7-1.3-19.1-8.8-19.7-21.6C514.9,389.2,515,385.2,515,381.2
			C515,381.2,515,381.2,515,381.2z"/>
		<path class="st1" d="M712.3,399.4c0-4.8-0.5-9.7,0.1-14.4c1.3-10.9,7.1-16.5,17.8-18.5c5.5-1,11-0.7,16.3,0.9
			c7.3,2.2,11.9,7.2,13.4,14.7c2.1,10.2,1.7,20.7,0.6,30.8c-0.6,5-7.3,1.1-11.1,2.1c-1.9,0.5-3.5,0-3.4-2.8c0.2-7,0.1-14,0-21
			c0-7.2-3.1-10.6-9.5-10.6c-6.5-0.1-9.7,3.2-9.8,10.4c-0.1,6.7-0.1,13.3,0,20c0.1,2.8-0.5,4.1-3.8,4.1c-11,0.1-11,0.3-11-10.7
			c0-1.7,0-3.3,0-5C712.1,399.4,712.2,399.4,712.3,399.4z"/>
		<path class="st1" d="M842,284.3c0-7.3,0.1-14.7-0.1-22c-0.1-2.6,0.7-3.3,3.4-3.4c11.4-0.3,11.4-0.4,11.4,10.9c0,9.2,0,9.4,9,9.1
			c4.2-0.1,5.8,0.7,5.6,5.3c-0.4,9.2-0.1,9.4-9.6,9.2c-3.8-0.1-5.6,0.9-5,4.9c0.2,1.3,0,2.7,0,4c0.1,8,2.3,10.6,10.2,10.9
			c3.7,0.1,4.7,1.4,4.2,4.7c0,0.3,0,0.7,0,1c0,10.3,0,10.3-10.2,8.6c-12.1-2-18.4-8.9-18.9-21.3C841.8,299,842.1,291.7,842,284.3
			C842,284.3,842,284.3,842,284.3z"/>
		<path class="st1" d="M804,311.5c0.2-4.4-0.4-9.5,0.5-14.6c2.4-12.6,14.2-20.5,26.7-17.8c0.2,0,0.4,0,0.5,0.1
			c3.2,3.5,0.7,7.8,1.4,11.6c0.4,2.2-0.9,2.7-2.9,2.9c-10.3,1.1-11.5,2.5-11.5,12.7c0,6-0.1,12,0,17.9c0.1,2.6-0.4,3.8-3.5,3.9
			c-11.3,0.3-11.3,0.5-11.3-10.9C804,315.6,804,313.9,804,311.5z"/>
		<path class="st0" d="M290.9,557.7c0-8.1,0.2-16.3-0.1-24.4c-0.1-4,1.4-5.5,5.2-5.1c0.8,0.1,1.7,0,2.5,0c15.3,0,20.4,4.6,21.1,19.9
			c0.4,8.9,1.1,17.9-1.5,26.7c-2.4,8.1-5.6,11.1-14.3,12c-13,1.3-13,1.3-13-11.7C290.9,569.3,290.9,563.5,290.9,557.7z"/>
		<path class="st0" d="M867.3,556.5c-0.1,7-0.4,11.9-1.4,16.8c-1.8,9-6.8,14-15.1,14.7c-9.5,0.8-16.7-3.1-18.7-12
			c-2.7-12.2-3.2-24.7,0.6-36.9c2.5-8.1,9-11.1,18.8-10c8.1,0.9,12.9,5.5,14.3,13.6C866.7,547.8,867.4,553.1,867.3,556.5z"/>
		<path class="st0" d="M656.9,558.6c-0.1,6.6,0.4,13.3-2.2,19.7c-2.7,6.7-9.4,10.4-17.9,9.7c-7.5-0.7-13.4-5.4-14.7-12.1
			c-2.1-11-2.7-22-0.3-33.1c2.2-9.9,7.5-14.1,18.6-13.8c8.8,0.3,14.7,5.8,16,14.7C657,548.7,656.8,553.6,656.9,558.6z"/>
		<path class="st0" d="M760.7,303.6c0-6.5,3.4-10,9.7-10c6.2,0,9.5,3.4,9.6,9.6c0.1,6.7-3,10.1-9.4,10.2
			C764.3,313.5,760.8,310,760.7,303.6z"/>
		<path class="st0" d="M688.1,390.4c0,6.6-3.2,10-9.6,10c-6.4,0-9.7-3.5-9.7-10c0-6.3,3.3-9.6,9.4-9.8
			C684.5,380.5,688,383.9,688.1,390.4z"/>
	</g>
</g>
</svg>
