<?xml version="1.0" encoding="utf-8"?>
<!-- Generator: Adobe Illustrator 21.0.2, SVG Export Plug-In . SVG Version: 6.00 Build 0)  -->
<svg version="1.1" id="Layer_1" xmlns="http://www.w3.org/2000/svg" xmlns:xlink="http://www.w3.org/1999/xlink" x="0px" y="0px"
	 viewBox="0 0 900 900" style="enable-background:new 0 0 900 900;" xml:space="preserve">
<style type="text/css">
	.st0{fill:#FEFEFE;}
	.st1{fill:#14DF6D;}
	.st2{fill:#172614;}
</style>
<g>
	<g>
		<path class="st0" d="M1,453.2C1,305.4,1,157.7,0.9,9.9c0-3.7,0.8-4.6,4.6-4.6c295.5,0.1,591.1,0.1,886.6,0c3.7,0,4.6,0.8,4.6,4.6
			c-0.1,295.9-0.1,591.7,0,887.6c0,3.7-0.8,4.6-4.6,4.6C596.5,902,301,902,5.5,902.1c-3.7,0-4.6-0.8-4.6-4.6
			C1,749.4,1,601.3,1,453.2z M553.9,828.3c15.9,0.1,27.7-5.5,38-14.9c11.6-10.5,20.7-23.2,30.1-35.6c10.6-13.8,21.1-27.7,35.2-38.2
			c14.4-10.7,31-16.8,47.7-22.6c14.8-5.2,29.7-9.9,43.9-16.9c19.8-9.8,29.4-26.1,31.5-47.6c1.5-15.3,1.7-30.7,2-46.1
			c0.3-14.1,1.5-28.1,5.5-41.7c5.3-18.1,16-33.3,26.6-48.4c9.3-13.3,19.1-26.1,25.9-41c6.9-15.4,7.1-30.7,0-46
			c-2.2-4.6-4.5-9.2-7.1-13.6c-7-11.9-15-23-23.3-33.9c-19.6-25.7-28-54.7-27.6-86.6c0.2-14.6-0.3-29.1-2-43.6
			c-1.9-15.9-6.9-30.3-20.5-40.3c-6-4.4-12.6-7.9-19.4-10.9c-13.3-5.8-27.1-10.4-41-14.8c-29.3-9.3-53.1-26-71.4-51
			c-10.6-14.5-21.2-29.2-34.2-41.9C579.2,78.4,562,73.6,542,77.5c-15.3,2.9-30.2,7.3-44.9,12.1c-31.8,10.4-63.4,11.1-95.4,0.6
			c-15.5-5.1-31.1-9.8-47.3-12.8c-19.7-3.7-36.6,0.8-51.1,14.7c-9.6,9.2-17.6,19.7-25.7,30.3c-9.9,13-19.7,26.2-32,37.2
			c-14.8,13.2-32.7,20.3-51,26.7c-15.5,5.5-31.3,10.4-46.2,17.6c-20.3,9.9-30.1,26.3-32.2,48.2c-1.5,15.3-1.6,30.7-2,46.1
			c-0.5,22-3.3,43.5-14.6,63.1c-5.3,9.2-11.2,18-17.3,26.6C73,401.2,63,414,56.4,429c-4.6,10.3-7,21-4.6,32.3
			c1.9,9,5.6,17.2,10.2,25.1c6.2,10.7,13.2,21.1,20.9,30.8c22.8,28.7,32.9,61.3,31.5,97.8c-0.5,12.9,0.4,25.8,2,38.6
			c1.9,15.5,6.9,29.6,20.2,39.4c6,4.4,12.5,8,19.4,11c13.5,5.8,27.5,10.3,41.4,15c25.6,8.5,48.2,21.5,65,43.3
			c10,13,20.1,25.8,30.3,38.7c17.8,22.6,40,32.5,69,24.6c16.1-4.3,32-9.3,48.1-13.6c18.6-5,37.3-7.4,56.4-4.4
			c15.2,2.4,29.9,7,44.6,11.4C525.4,823.4,540.2,827.7,553.9,828.3z"/>
		<path class="st1" d="M553.9,828.3c-13.7-0.6-28.5-4.9-43.2-9.3c-14.7-4.4-29.4-9-44.6-11.4c-19.1-3-37.8-0.6-56.4,4.4
			c-16.1,4.3-32,9.3-48.1,13.6c-29,7.8-51.1-2-69-24.6c-10.1-12.9-20.3-25.7-30.3-38.7c-16.8-21.8-39.4-34.8-65-43.3
			c-13.9-4.6-27.9-9.1-41.4-15c-6.8-3-13.3-6.5-19.4-11c-13.3-9.8-18.2-23.9-20.2-39.4c-1.6-12.8-2.5-25.8-2-38.6
			c1.4-36.5-8.7-69.1-31.5-97.8c-7.7-9.7-14.7-20-20.9-30.8c-4.6-7.9-8.3-16.1-10.2-25.1c-2.3-11.3,0.1-22,4.6-32.3
			c6.6-15,16.6-27.8,25.9-41c6.1-8.7,12-17.4,17.3-26.6c11.3-19.5,14.1-41.1,14.6-63.1c0.4-15.4,0.5-30.8,2-46.1
			c2.1-21.9,11.9-38.3,32.2-48.2c14.9-7.2,30.7-12.1,46.2-17.6c18.3-6.5,36.3-13.6,51-26.7c12.3-11,22.1-24.2,32-37.2
			c8-10.5,16.1-21,25.7-30.3c14.5-13.9,31.5-18.4,51.1-14.7c16.1,3,31.8,7.7,47.3,12.8c32,10.5,63.6,9.8,95.4-0.6
			c14.7-4.8,29.6-9.2,44.9-12.1c20.1-3.9,37.2,1,51.9,15.3c13,12.7,23.6,27.3,34.2,41.9c18.3,25,42,41.6,71.4,51
			c13.8,4.4,27.6,9,41,14.8c6.8,3,13.4,6.5,19.4,10.9c13.6,10,18.6,24.4,20.5,40.3c1.7,14.5,2.2,29.1,2,43.6
			c-0.4,32,8.1,60.9,27.6,86.6c8.3,10.9,16.3,22.1,23.3,33.9c2.6,4.4,5,9,7.1,13.6c7.1,15.3,7,30.6,0,46
			c-6.7,14.9-16.6,27.8-25.9,41c-10.6,15.2-21.3,30.3-26.6,48.4c-4,13.6-5.1,27.6-5.5,41.7c-0.4,15.4-0.5,30.8-2,46.1
			c-2.1,21.5-11.7,37.8-31.5,47.6c-14.1,7-29.1,11.7-43.9,16.9c-16.7,5.8-33.3,11.9-47.7,22.6c-14.1,10.5-24.6,24.4-35.2,38.2
			c-9.5,12.3-18.5,25-30.1,35.6C581.6,822.8,569.8,828.4,553.9,828.3z M334.6,461.5c-20.2,0.1-37.9,14.9-40.3,33.5
			c-2.6,20.4,9.7,38.6,29.8,43.8c16.1,4.2,34.4-1.9,43-14.5c4.1-5.9,3.6-12.1-1.2-16.6c-4.9-4.5-12-4.6-17.2-0.2
			c-1.6,1.4-3.1,3-4.7,4.4c-5.3,4.3-12.7,4.5-18,0.7c-5.3-3.8-7.4-10.6-5.3-16.8c2.1-6.1,7.7-9.6,14.7-9.5c5.7,0.1,9.3,3.7,13,7.3
			c4.9,4.9,11.2,5.3,16.6,1.4c6.3-4.6,6.7-13.2,0.4-20C357.2,466.1,346.9,461.3,334.6,461.5z M600.4,604.7c0.3-0.1,0.6-0.3,0.9-0.4
			c1.6,2.4,3.1,4.9,4.7,7.3c1.7,2.6,3.3,5.4,5,7.9c4,5.7,11.1,7.3,17,4c5.7-3.2,7.8-10,4.7-16.4c-1.2-2.5-2.8-4.9-4.4-7.2
			c-1.9-2.7-2.3-4.6,0.1-7.7c6.6-8.4,7.6-17.9,2.6-27.4c-4.8-9.4-12.8-14.5-23.5-14.9c-5.4-0.2-10.9-0.1-16.4-0.1
			c-11.9,0.1-16.1,4.2-16.3,16.1c-0.2,12.7-0.1,25.5,0,38.2c0,3.3,0,6.6,0.5,9.9c1,7.2,6.5,11.6,13.5,11c6.7-0.5,11.2-5.5,11.4-12.6
			C600.5,610,600.4,607.4,600.4,604.7z M413.7,604.8c0.3-0.1,0.7-0.3,1-0.4c1.6,2.5,3.1,5,4.7,7.4c1.7,2.7,3.3,5.4,5.1,8
			c3.8,5.4,10.9,7,16.7,3.8c5.7-3.1,7.9-9.5,5.1-15.8c-1.3-2.8-2.9-5.6-4.8-8.1c-2-2.6-2-4.4,0.2-7.2c6.6-8.4,7.7-17.8,2.8-27.5
			c-4.9-9.7-13-14.7-23.9-15c-6-0.2-11.9-0.2-17.9,0c-9.8,0.3-14.2,4.8-14.2,14.5c-0.1,11.4,0,22.8,0,34.3c0,4.8-0.2,9.6,0.2,14.4
			c0.6,7.6,5.9,12.3,13.1,12c6.9-0.3,11.7-5.2,11.9-12.6C413.8,610,413.7,607.4,413.7,604.8z M218.6,513.5c2.4,0.9,3.3,2.7,4.5,4.2
			c4.4,5.2,8.6,10.5,13,15.7c5.2,6.1,12.8,7,18.3,2.3c5.7-4.8,6.1-11.5,1-17.9c-3.9-4.9-7.7-9.9-11.9-14.6c-2.3-2.5-2.1-4.3-0.1-6.8
			c3.4-4.5,6.6-9.1,9.7-13.8c4.2-6.2,3.3-12.9-2.3-17.1c-5.7-4.3-13-3.6-17.7,2.2c-4.1,5.2-7.7,10.7-11.6,16.1
			c-0.7,1-1.1,2.5-3.3,2.2c0-3.6,0.2-7.2,0-10.8c-0.5-7.8-5.7-12.6-13.2-12.4c-7,0.2-12,5.4-12.2,13c-0.1,3.8,0,7.6,0,11.4
			c0,12.9-0.1,25.8,0.1,38.7c0.1,7.6,4.8,12.3,11.9,12.6c7.6,0.3,12.1-3.4,13.1-11.1C218.4,522.8,218.4,518.3,218.6,513.5z
			 M399.6,513.4c0.3-0.2,0.7-0.4,1-0.6c5.8,6.9,11.5,13.9,17.3,20.8c4.7,5.7,12.6,6.7,18,2.3c5.6-4.6,6.1-11.8,1.2-18
			c-4-5-8-10.1-12.2-15c-1.9-2.2-2-3.8-0.3-6c3.4-4.5,6.6-9.1,9.8-13.7c4.5-6.6,3.8-13.2-1.9-17.6c-6-4.6-13.4-3.6-18.3,2.8
			c-4,5.2-7.7,10.7-11.6,16.1c-0.7,0.9-1,2.6-3,2.2c0-3.8-0.3-7.6,0.1-11.4c0.7-7.5-6.7-12.4-12.1-12.5c-6.9-0.2-12.8,4.5-13,11.6
			c-0.3,17.5-0.3,35.1,0,52.6c0.1,7.4,5.3,11.6,12.8,11.5c7.1-0.1,11.7-4.4,12.1-11.7C399.8,522.3,399.6,517.8,399.6,513.4z
			 M383,613.2c0-2-0.3-3.9-1.2-5.8c-8.2-17-16.4-33.9-24.7-50.9c-2.4-5-6.6-7.3-12-7.2c-5.3,0.1-9.1,2.6-11.4,7.4
			c-2.4,4.9-4.8,9.8-7.2,14.7c-5.7,11.9-11.6,23.8-17.2,35.8c-2.9,6.2-0.7,12.9,4.5,16.2c5.3,3.3,13.6,2.6,16.4-2.9
			c3.1-6.1,7.6-5.7,12.7-5.6c2.3,0.1,4.7,0.2,6.9,0c4.6-0.5,7.9,0.4,10.4,5.1c2.7,5,8.9,6.4,14.4,4.5
			C379.6,622.9,382.9,618.3,383,613.2z M223,548c-1.7,0.1-3.3,0.1-5,0.2c-12.2,1.2-21.9,9.7-23.2,20.3c-1.6,12.8,3.6,20.7,16.8,25.6
			c3.3,1.2,6.5,2.4,9.8,3.6c2.4,0.9,4.3,2.6,2.8,5.3c-1.4,2.5-3.8,1.5-5.7,0.4c-3-1.8-5.7-4-8.8-5.6c-4.9-2.5-10.1-1.6-13.8,2
			c-3.4,3.4-4.2,8.4-2.1,13.3c1.4,3.3,3.9,5.7,6.8,7.8c10.5,7.5,28.3,7.9,39.1,0.9c4.8-3.1,8.1-7.3,9.7-12.8
			c3.7-12.6-0.8-23.3-12.5-29.1c-4.9-2.4-10.2-4-15.2-6.1c-1.8-0.8-3.9-2-2.5-4.5c1.3-2.3,3.4-1.6,5.2-0.6c3.5,1.9,6.4,4.7,10.4,5.7
			c6.7,1.6,12.4-2.6,12.7-9.5c0.2-4.9-2-8.6-5.9-11.4C236.1,549.5,229.8,547.9,223,548z M518.8,587.3
			C518.9,587.3,518.9,587.3,518.8,587.3c0.1,8.3-0.1,16.6,0.1,24.8c0.2,7.3,4.1,11.9,11.1,12.3c9.9,0.5,19.9,0.5,29.8,0
			c6.8-0.3,10.8-5.1,10.7-11.4c-0.1-6.1-4.3-10.6-11-11.2c-4-0.3-7.9-0.3-11.9-0.2c-2.3,0-3.3-0.7-3.3-3.1c0-2.4,1.4-2.6,3.2-2.6
			c2.6,0,5.3,0.1,7.9-0.1c5.8-0.4,8.9-3.5,9-8.6c0.1-5-3.1-8.4-8.7-9c-2.8-0.3-5.6-0.1-8.4-0.2c-1.5,0-3,0.2-3-2.2
			c0-2.2,0.8-2.9,2.9-2.9c4,0.1,8,0.1,11.9-0.1c7.2-0.5,11.5-5,11.4-11.8c-0.1-6.3-4.8-10.8-11.7-11c-9.1-0.2-18.2-0.2-27.3,0
			c-8.1,0.2-12.5,4.7-12.7,12.8C518.7,571,518.8,579.1,518.8,587.3z M482,550.2C482,550.2,482,550.2,482,550.2
			c-7.3,0.1-14.6-0.2-21.8,0.2c-6.5,0.3-10.6,4.7-10.9,10.7c-0.3,5.9,3.6,10.5,9.9,11.7c1.5,0.3,3,0.4,4.4,0.2
			c4.8-0.8,5.6,1.4,5.5,5.7c-0.3,11.3-0.2,22.5,0,33.8c0.1,7.4,4.2,11.8,10.8,12.6c7.4,0.9,13.1-3.2,14-10.7
			c1.3-11,0.3-22.2,0.5-33.2c0.1-7.7,0-7.7,7.6-8.1c7.3-0.4,11.9-4.8,12-11.3c0.1-6.6-4.3-11.1-11.7-11.4
			C495.6,550,488.8,550.2,482,550.2z M285.1,550.2c0,0,0,0.1,0,0.1c-7.4,0-14.9-0.3-22.3,0.1c-6,0.3-9.9,4.5-10.4,10.1
			c-0.5,6,2.7,10.4,8.9,11.9c2.1,0.5,4.3,0.7,6.4,0.5c3.9-0.5,4.6,1.2,4.6,4.7c-0.2,11.8-0.2,23.5,0.1,35.3
			c0.2,7.2,4.5,11.6,11.3,12.1c8,0.6,13.4-4,13.6-12.2c0.3-10.3,0.2-20.5,0.2-30.8c0-8.4,0-8.4,8.2-9c7.1-0.6,11.7-5.2,11.6-11.7
			c-0.1-6.4-4.5-10.7-11.6-10.9C298.7,550,291.9,550.2,285.1,550.2z M474.1,320.9c0,5,0,9.9,0,14.9c0,10.9,0,10.8,10.9,10.7
			c3.3,0,3.8-1.2,3.8-4.1c-0.2-7.6-0.1-15.2,0-22.9c0-6.5-0.1-12.9,0.2-19.4c0.3-5.2,4-8,9.6-7.9c5.6,0.1,9,3,9.4,8.2
			c0.7,7.8-2.1,10.9-10.5,11.6c-1.7,0.1-4.1-0.7-3.9,2.3c0.3,4-1.2,8.1,1,12c0.1,0.2,0.6,0.2,0.9,0.2c7.6,0.2,15.2-0.1,20.8-5.9
			c7.8-8.2,7.6-18.3,4.9-28.5c-2.4-9-9.2-12.7-17.9-14c-18.4-2.7-29.1,6.4-29.2,24.9C474.1,308.9,474.1,314.9,474.1,320.9z
			 M529.8,320.8c0,5,0,9.9,0,14.9c0,11.3,0,11.2,11.4,10.7c2.7-0.1,3.3-1.1,3.3-3.5c-0.1-7.5-0.1-14.9,0-22.4
			c0-6.8-0.1-13.6,0.2-20.4c0.3-5.2,4-8,9.6-7.9c5.6,0.1,9,3,9.4,8.1c0.7,7.8-2.1,10.9-10.4,11.7c-1.6,0.1-4.1-0.7-4,2.2
			c0.3,4-1.2,8.1,0.9,12c0.1,0.2,0.6,0.2,0.9,0.2c7.6,0.2,15.2,0,20.8-5.9c7.8-8.2,7.6-18.3,5-28.5c-2.4-9-9.2-12.8-17.9-14.1
			c-18.4-2.7-29.1,6.4-29.2,24.9C529.8,308.9,529.8,314.9,529.8,320.8z M269.4,367.1c0.1-0.6,0-1.2,0.2-1.6
			c9.5-18.2,22.5-33.4,39.8-44.8c9.1-6,19.2-10.4,29.3-14.4c3.5-1.4,5.7-3.8,4.1-7.7c-1.5-3.5-4.4-4.1-7.9-2.8
			c-10.7,4.1-21.1,8.7-30.6,15.1c-19.2,12.9-34.3,29.6-44.6,50.3c-1.8,3.6-3.1,3.2-5.6,1c-2.5-2.2-4.9-4.7-8.9-6.4
			c1.8,16.4,3.6,32.2,5.4,49.1c11.4-13.4,21.9-25.7,32.8-38.5C277.9,366.2,273.8,367.9,269.4,367.1z M393.9,309.6
			c-4.5,3.1-9.4,2.4-14.3,2.4c-11.9,0.1-11.8,0-11,11.7c0.1,2.2,0.8,2.9,2.9,2.8c5.3-0.1,10.6,0,15.9,0c17.1,0,24.8-7.7,25-24.9
			c0.1-7.5,0.8-6.3-6.2-6.4c-8-0.1-16,0-25.2,0c4.8-3,4.8-3,16-3c11,0,10.9,0,10.6-11c-0.1-2.5-0.5-3.5-3.3-3.4
			c-6.3,0.2-12.6-0.1-18.9,0.1c-13.1,0.5-20.7,8.2-21.5,21.3c-0.1,2.1,0.1,4.3-0.1,6.5c-0.4,3.3,0.9,4.2,4.1,4.1
			C376.5,309.4,385.2,309.6,393.9,309.6z M448.6,392.1c-4.6,3.2-9.8,2.4-14.8,2.4c-11.4,0.1-11.3,0-10.5,11.7
			c0.1,2.1,0.7,2.9,2.9,2.8c5.3-0.1,10.6,0,15.9,0c17.1,0,24.8-7.7,25-24.9c0.1-7.5,0.8-6.3-6.2-6.4c-8-0.1-16,0-23.9,0
			c4.6-4,9.8-2.8,14.7-2.9c11-0.1,10.9,0,10.6-11.1c-0.1-2.5-0.5-3.5-3.3-3.4c-6.3,0.2-12.6-0.1-18.9,0.1
			c-13.1,0.5-20.7,8.2-21.6,21.3c-0.1,2.1,0.1,4.3-0.1,6.5c-0.4,3.3,0.9,4.2,4.1,4.1C431.2,391.9,439.9,392.1,448.6,392.1z
			 M289.2,501c0-7.9,0-15.9,0-23.8c0-0.3,0-0.7,0-1c-0.5-8.9-6.4-14.4-14.3-13.4c-6.9,0.9-11,5.5-11.1,14.1c-0.3,16-0.2,32.1,0,48.1
			c0.1,5.8,2.3,10.7,8.2,12.9c8.9,3.2,17-2.7,17.2-12.6C289.4,517.2,289.2,509.1,289.2,501z M585.4,302c0,16.2,8.1,24.4,23.9,24.5
			c16.4,0,24.7-8.1,24.7-24.2c0-16-8.2-24.4-24-24.5C593.6,277.7,585.5,285.8,585.4,302z M496,384.9c0.1,16.2,8.3,24.2,24.8,24.1
			c15.7-0.1,23.9-8.5,23.8-24.6c-0.1-16.1-8.4-24.2-24.8-24.1C504,360.3,495.9,368.7,496,384.9z M418.5,292.9
			C418.5,292.9,418.5,292.9,418.5,292.9c0.1,4-0.1,7.9,0.1,11.9c0.6,12.9,7.3,20.1,20.1,21.6c18,2.2,28.2-6.6,28.5-24.8
			c0.1-4.3,0-8.6,0-12.9c0-11.5,0-11.4-11.6-11c-2.7,0.1-3.3,1.1-3.2,3.5c0.1,7.3,0.1,14.6,0,21.8c-0.1,5.7-3.2,8.6-9.1,8.9
			c-6,0.3-9.7-2.7-10-8.4c-0.3-5.1-0.1-10.2-0.1-15.4c0-10.6,0-10.4-10.7-10.4c-3.5,0-4.1,1.3-3.9,4.3
			C418.6,285.6,418.5,289.2,418.5,292.9z M412.4,376.4c0-2.2,0-3.6,0-5.1c0-11.6,0-11.5-11.5-11.1c-2.6,0.1-3.4,0.8-3.3,3.4
			c0.2,7.1,0.1,14.2,0,21.3c-0.1,6.3-3.3,9.5-9.5,9.6c-6.1,0.1-9.4-3.1-9.7-9.4c-0.2-4.6-0.1-9.3-0.1-13.9c0-11.7,0-11.6-11.6-11
			c-2.4,0.1-3.1,0.8-3,3.2c0.1,8.1-0.2,16.2,0.2,24.3c0.6,13,8,20.4,20.9,21.3c3.6,0.3,7.2,0.1,10.8-0.7c8.7-1.8,13.9-7,15.9-15.7
			C412.8,387,412.3,381.4,412.4,376.4z M550.8,393.3c0,0-0.1,0-0.1,0c0,1.7,0,3.3,0,5c0,11,0,10.9,10.8,10.8c3.1,0,4-0.9,3.9-3.9
			c-0.2-7.1,0-14.2,0-21.3c0-4,1.7-7.1,5.6-8.4c7.8-2.6,13.5,1.5,13.5,9.8c0,6.9,0.1,13.9,0,20.8c-0.1,2.5,1,3.5,3.2,2.9
			c3.8-0.9,10.7,2.6,11.1-2c1.1-10.4,1.7-21.2-0.7-31.6c-1.6-6.9-6.1-11.7-13-13.7c-5.1-1.5-10.4-1.9-15.7-1
			c-11.7,2-17.7,8.4-18.6,20.3C550.5,385.1,550.8,389.2,550.8,393.3z M675.9,283.4C675.9,283.4,675.9,283.4,675.9,283.4
			c0,7.1-0.2,14.3,0.1,21.4c0.4,11.9,6.4,19,17.2,21.1c11.4,2.2,11.8,1.7,11.8-9.6c0-3.2-0.8-4.2-4.1-4.3c-8.1-0.4-10.2-3-10.4-11.2
			c0-1.2,0.2-2.3,0-3.5c-0.7-4.3,1.3-5.2,5.3-5.1c9.2,0.2,8.9,0,9.2-8.9c0.1-4.2-0.7-5.7-5.3-5.5c-9.2,0.4-9.2,0.1-9.2-9.3
			c0-10.9,0-10.7-11.1-10.6c-2.9,0-3.6,0.9-3.6,3.7C676,268.8,675.9,276.1,675.9,283.4z M640.1,310c0,2.4,0,4.2,0,6
			c0,11.2,0,11.2,11.6,10.5c2.4-0.1,3.1-0.9,3.1-3.2c-0.1-6.1,0-12.3,0-18.4c0-10.2,1.2-11.5,11.5-12.7c1.6-0.2,3-0.2,2.9-2.4
			c-0.1-3.3,0-6.6,0-9.9c0-1-0.2-1.7-1.5-2.1c-10-3.2-23.6,4.5-26.4,15C639.6,298.7,640.3,304.6,640.1,310z"/>
		<path class="st2" d="M334.6,461.5c12.3-0.1,22.6,4.6,30.8,13.6c6.3,6.8,5.9,15.5-0.4,20c-5.4,3.9-11.7,3.5-16.6-1.4
			c-3.7-3.7-7.2-7.2-13-7.3c-7-0.1-12.6,3.4-14.7,9.5c-2.2,6.2,0,13,5.3,16.8c5.3,3.8,12.7,3.6,18-0.7c1.7-1.4,3.1-3,4.7-4.4
			c5.1-4.4,12.3-4.3,17.2,0.2c4.9,4.5,5.3,10.6,1.2,16.6c-8.6,12.5-26.9,18.7-43,14.5c-20-5.3-32.3-23.4-29.8-43.8
			C296.7,476.4,314.4,461.6,334.6,461.5z"/>
		<path class="st0" d="M600.4,604.7c0,2.6,0.1,5.3,0,7.9c-0.2,7.1-4.7,12.1-11.4,12.6c-7,0.6-12.5-3.8-13.5-11
			c-0.5-3.3-0.5-6.6-0.5-9.9c-0.1-12.7-0.1-25.5,0-38.2c0.1-11.9,4.4-16,16.3-16.1c5.5-0.1,10.9-0.2,16.4,0.1
			c10.7,0.4,18.6,5.5,23.5,14.9c4.9,9.6,4,19-2.6,27.4c-2.4,3-2,5-0.1,7.7c1.6,2.3,3.2,4.7,4.4,7.2c3.1,6.4,1,13.1-4.7,16.4
			c-6,3.4-13.1,1.7-17-4c-1.8-2.6-3.4-5.3-5-7.9c-1.6-2.5-3.1-4.9-4.7-7.3C601.1,604.4,600.7,604.6,600.4,604.7z"/>
		<path class="st0" d="M413.7,604.8c0,2.6,0.1,5.2,0,7.8c-0.3,7.4-5,12.3-11.9,12.6c-7.2,0.3-12.5-4.5-13.1-12
			c-0.4-4.8-0.2-9.6-0.2-14.4c0-11.4-0.1-22.8,0-34.3c0.1-9.7,4.5-14.2,14.2-14.5c6-0.2,11.9-0.2,17.9,0c10.9,0.3,19,5.4,23.9,15
			c4.9,9.6,3.8,19-2.8,27.5c-2.2,2.8-2.1,4.6-0.2,7.2c1.9,2.5,3.5,5.2,4.8,8.1c2.8,6.3,0.6,12.8-5.1,15.8
			c-5.9,3.2-12.9,1.6-16.7-3.8c-1.8-2.6-3.4-5.3-5.1-8c-1.6-2.5-3.1-5-4.7-7.4C414.4,604.6,414,604.7,413.7,604.8z"/>
		<path class="st2" d="M218.6,513.5c-0.2,4.8-0.2,9.3-0.8,13.8c-0.9,7.7-5.5,11.4-13.1,11.1c-7.1-0.3-11.8-4.9-11.9-12.6
			c-0.2-12.9-0.1-25.8-0.1-38.7c0-3.8-0.1-7.6,0-11.4c0.2-7.5,5.2-12.8,12.2-13c7.5-0.2,12.6,4.6,13.2,12.4c0.2,3.6,0,7.2,0,10.8
			c2.2,0.3,2.6-1.3,3.3-2.2c3.9-5.3,7.5-10.9,11.6-16.1c4.6-5.8,12-6.6,17.7-2.2c5.6,4.2,6.5,10.9,2.3,17.1
			c-3.2,4.6-6.3,9.3-9.7,13.8c-1.9,2.5-2.1,4.3,0.1,6.8c4.2,4.7,8,9.7,11.9,14.6c5.1,6.4,4.7,13.1-1,17.9
			c-5.5,4.7-13.1,3.8-18.3-2.3c-4.4-5.2-8.6-10.5-13-15.7C221.9,516.3,221.1,514.4,218.6,513.5z"/>
		<path class="st2" d="M399.6,513.4c0,4.5,0.2,8.9,0,13.4c-0.3,7.3-4.9,11.6-12.1,11.7c-7.5,0.1-12.7-4.2-12.8-11.5
			c-0.3-17.5-0.3-35.1,0-52.6c0.1-7.1,6-11.7,13-11.6c5.3,0.1,12.8,5,12.1,12.5c-0.4,3.8-0.1,7.6-0.1,11.4c2,0.4,2.3-1.2,3-2.2
			c3.9-5.3,7.6-10.9,11.6-16.1c5-6.4,12.4-7.4,18.3-2.8c5.7,4.4,6.4,11,1.9,17.6c-3.2,4.6-6.4,9.3-9.8,13.7c-1.7,2.3-1.6,3.9,0.3,6
			c4.2,4.9,8.2,10,12.2,15c4.9,6.2,4.4,13.4-1.2,18c-5.4,4.4-13.3,3.4-18-2.3c-5.8-6.9-11.5-13.9-17.3-20.8
			C400.3,513,400,513.2,399.6,513.4z"/>
		<path class="st0" d="M383,613.2c-0.1,5.1-3.4,9.7-8.2,11.3c-5.5,1.9-11.8,0.5-14.4-4.5c-2.5-4.7-5.8-5.6-10.4-5.1
			c-2.3,0.2-4.6,0.1-6.9,0c-5.1-0.1-9.6-0.5-12.7,5.6c-2.8,5.5-11.1,6.2-16.4,2.9c-5.3-3.2-7.4-9.9-4.5-16.2
			c5.5-12,11.4-23.9,17.2-35.8c2.4-4.9,4.8-9.8,7.2-14.7c2.3-4.8,6.1-7.3,11.4-7.4c5.4-0.1,9.6,2.2,12,7.2
			c8.2,16.9,16.4,33.9,24.7,50.9C382.7,609.3,382.9,611.2,383,613.2z"/>
		<path class="st0" d="M223,548c6.8-0.1,13.1,1.5,18.7,5.6c3.8,2.8,6.1,6.4,5.9,11.4c-0.3,6.8-6,11.1-12.7,9.5
			c-4-1-6.9-3.8-10.4-5.7c-1.8-1-3.9-1.8-5.2,0.6c-1.3,2.5,0.8,3.7,2.5,4.5c5,2.2,10.3,3.7,15.2,6.1c11.7,5.8,16.2,16.5,12.5,29.1
			c-1.6,5.5-4.9,9.7-9.7,12.8c-10.8,7-28.7,6.6-39.1-0.9c-2.9-2-5.3-4.5-6.8-7.8c-2.2-4.9-1.4-9.9,2.1-13.3c3.6-3.6,8.9-4.5,13.8-2
			c3.1,1.6,5.8,3.8,8.8,5.6c1.9,1.1,4.3,2.1,5.7-0.4c1.4-2.7-0.4-4.3-2.8-5.3c-3.2-1.2-6.5-2.4-9.8-3.6
			c-13.2-4.9-18.4-12.8-16.8-25.6c1.3-10.6,11-19.1,23.2-20.3C219.7,548,221.4,548,223,548z"/>
		<path class="st0" d="M518.8,587.3c0-8.1-0.1-16.2,0-24.4c0.2-8.1,4.6-12.6,12.7-12.8c9.1-0.2,18.2-0.2,27.3,0
			c6.9,0.1,11.6,4.7,11.7,11c0.1,6.8-4.1,11.3-11.4,11.8c-4,0.3-7.9,0.2-11.9,0.1c-2.1,0-3,0.7-2.9,2.9c0,2.3,1.5,2.1,3,2.2
			c2.8,0,5.7-0.2,8.4,0.2c5.5,0.6,8.7,4.1,8.7,9c-0.1,5.1-3.2,8.1-9,8.6c-2.6,0.2-5.3,0.2-7.9,0.1c-1.8,0-3.2,0.1-3.2,2.6
			c0,2.4,1,3.2,3.3,3.1c4-0.1,8-0.1,11.9,0.2c6.7,0.6,10.9,5.1,11,11.2c0.1,6.2-3.9,11.1-10.7,11.4c-9.9,0.4-19.9,0.4-29.8,0
			c-7-0.3-10.9-4.9-11.1-12.3C518.7,603.8,518.9,595.5,518.8,587.3C518.9,587.3,518.9,587.3,518.8,587.3z"/>
		<path class="st0" d="M482,550.2c6.8,0,13.6-0.2,20.4,0.1c7.4,0.3,11.8,4.7,11.7,11.4c-0.1,6.5-4.7,10.9-12,11.3
			c-7.6,0.5-7.5,0.5-7.6,8.1c-0.2,11.1,0.8,22.2-0.5,33.2c-0.9,7.5-6.6,11.6-14,10.7c-6.7-0.8-10.7-5.2-10.8-12.6
			c-0.2-11.3-0.3-22.5,0-33.8c0.1-4.3-0.7-6.5-5.5-5.7c-1.4,0.2-3,0.1-4.4-0.2c-6.3-1.2-10.2-5.8-9.9-11.7c0.3-6,4.4-10.4,10.9-10.7
			C467.5,550,474.8,550.2,482,550.2C482,550.2,482,550.2,482,550.2z"/>
		<path class="st0" d="M285.1,550.2c6.8,0,13.6-0.2,20.4,0.1c7.1,0.3,11.5,4.6,11.6,10.9c0.1,6.5-4.4,11.2-11.6,11.7
			c-8.1,0.6-8.1,0.6-8.2,9c0,10.3,0.1,20.5-0.2,30.8c-0.3,8.2-5.7,12.8-13.6,12.2c-6.7-0.5-11.1-4.8-11.3-12.1
			c-0.3-11.8-0.3-23.5-0.1-35.3c0.1-3.6-0.7-5.2-4.6-4.7c-2.1,0.2-4.3,0-6.4-0.5c-6.2-1.5-9.4-6-8.9-11.9c0.5-5.6,4.3-9.8,10.4-10.1
			c7.4-0.4,14.9-0.1,22.3-0.1C285.1,550.2,285.1,550.2,285.1,550.2z"/>
		<path class="st0" d="M474.1,320.9c0-6,0-11.9,0-17.9c0-18.5,10.8-27.6,29.2-24.9c8.8,1.3,15.5,5.1,17.9,14
			c2.7,10.1,2.9,20.2-4.9,28.5c-5.6,5.9-13.2,6.2-20.8,5.9c-0.3,0-0.8,0-0.9-0.2c-2.2-3.8-0.7-8-1-12c-0.2-3,2.3-2.1,3.9-2.3
			c8.3-0.7,11.1-3.8,10.5-11.6c-0.4-5.2-3.8-8.1-9.4-8.2c-5.6-0.1-9.3,2.7-9.6,7.9c-0.4,6.4-0.2,12.9-0.2,19.4
			c0,7.6-0.1,15.2,0,22.9c0.1,2.9-0.5,4-3.8,4.1c-10.9,0.1-10.9,0.3-10.9-10.7C474.1,330.8,474.1,325.8,474.1,320.9z"/>
		<path class="st0" d="M529.8,320.8c0-6,0-11.9,0-17.9c0-18.5,10.8-27.6,29.2-24.9c8.8,1.3,15.5,5.1,17.9,14.1
			c2.7,10.1,2.9,20.2-5,28.5c-5.6,5.9-13.3,6.1-20.8,5.9c-0.3,0-0.8,0-0.9-0.2c-2.1-3.8-0.7-8-0.9-12c-0.2-3,2.3-2.1,4-2.2
			c8.3-0.7,11.1-3.8,10.4-11.7c-0.4-5.1-3.8-8.1-9.4-8.1c-5.6-0.1-9.3,2.7-9.6,7.9c-0.4,6.8-0.2,13.6-0.2,20.4
			c0,7.5-0.1,14.9,0,22.4c0,2.5-0.6,3.4-3.3,3.5c-11.4,0.5-11.4,0.6-11.4-10.7C529.8,330.8,529.8,325.8,529.8,320.8z"/>
		<path class="st0" d="M269.4,367.1c4.4,0.8,8.5-0.9,13.9-0.7c-11,12.9-21.4,25.2-32.8,38.5c-1.9-16.9-3.6-32.6-5.4-49.1
			c4,1.6,6.4,4.2,8.9,6.4c2.5,2.2,3.8,2.6,5.6-1c10.4-20.7,25.5-37.4,44.6-50.3c9.5-6.4,19.9-11,30.6-15.1c3.4-1.3,6.4-0.8,7.9,2.8
			c1.7,3.9-0.6,6.3-4.1,7.7c-10.2,4-20.2,8.4-29.3,14.4c-17.2,11.3-30.2,26.5-39.8,44.8C269.4,365.9,269.5,366.5,269.4,367.1z"/>
		<path class="st0" d="M393.9,309.6c-8.7,0-17.4-0.1-26.1,0.1c-3.2,0.1-4.5-0.8-4.1-4.1c0.3-2.1,0-4.3,0.1-6.5
			c0.8-13.1,8.5-20.7,21.5-21.3c6.3-0.3,12.6,0.1,18.9-0.1c2.7-0.1,3.2,1,3.3,3.4c0.3,11.1,0.4,11-10.6,11c-11.2,0-11.2,0-16,3
			c9.2,0,17.2-0.1,25.2,0c7,0.1,6.3-1.1,6.2,6.4c-0.1,17.2-7.9,24.9-25,24.9c-5.3,0-10.6-0.1-15.9,0c-2.1,0-2.7-0.7-2.9-2.8
			c-0.8-11.7-0.9-11.6,11-11.7C384.5,312,389.4,312.7,393.9,309.6z"/>
		<path class="st0" d="M448.6,392.1c-8.7,0-17.4-0.1-26.1,0.1c-3.2,0.1-4.5-0.8-4.1-4.1c0.3-2.1,0-4.3,0.1-6.5
			c0.8-13.1,8.5-20.7,21.6-21.3c6.3-0.3,12.6,0.1,18.9-0.1c2.7-0.1,3.2,1,3.3,3.4c0.3,11,0.4,10.9-10.6,11.1
			c-5,0.1-10.2-1.1-14.7,2.9c8,0,16-0.1,23.9,0c7,0.1,6.3-1.1,6.2,6.4c-0.1,17.2-7.9,24.9-25,24.9c-5.3,0-10.6-0.1-15.9,0
			c-2.1,0-2.7-0.7-2.9-2.8c-0.8-11.6-0.9-11.6,10.5-11.7C438.8,394.5,443.9,395.2,448.6,392.1z"/>
		<path class="st2" d="M289.2,501c0,8.1,0.2,16.2,0,24.3c-0.2,9.9-8.4,15.8-17.2,12.6c-6-2.2-8.2-7.1-8.2-12.9
			c-0.1-16-0.3-32.1,0-48.1c0.2-8.6,4.2-13.2,11.1-14.1c7.9-1,13.8,4.5,14.3,13.4c0,0.3,0,0.7,0,1
			C289.2,485.1,289.2,493.1,289.2,501z"/>
		<path class="st0" d="M585.4,302c0-16.2,8.2-24.3,24.6-24.2c15.8,0,24,8.4,24,24.5c0,16.2-8.3,24.3-24.7,24.2
			C593.5,326.4,585.4,318.2,585.4,302z M619.3,302.1c0-6.5-3.5-9.9-9.8-9.8c-6.1,0.1-9.4,3.5-9.4,9.7c-0.1,6.5,3.3,10,9.6,10
			C616,312,619.3,308.6,619.3,302.1z"/>
		<path class="st0" d="M496,384.9c-0.1-16.2,8-24.5,23.8-24.6c16.4-0.1,24.7,8,24.8,24.1c0.1,16.1-8.1,24.5-23.8,24.6
			C504.3,409,496.1,401.1,496,384.9z M529.9,384.6c0-6.5-3.4-9.9-9.7-9.9c-6.1,0.1-9.4,3.4-9.5,9.6c-0.1,6.5,3.2,10,9.5,10.1
			C526.5,394.6,529.9,391.2,529.9,384.6z"/>
		<path class="st0" d="M418.5,292.9c0-3.6,0.2-7.3-0.1-10.9c-0.2-3,0.4-4.3,3.9-4.3c10.7,0.1,10.7-0.1,10.7,10.4
			c0,5.1-0.1,10.3,0.1,15.4c0.3,5.8,4,8.7,10,8.4c5.9-0.3,9-3.2,9.1-8.9c0.1-7.3,0.1-14.6,0-21.8c0-2.4,0.5-3.4,3.2-3.5
			c11.6-0.4,11.6-0.5,11.6,11c0,4.3,0.1,8.6,0,12.9c-0.3,18.1-10.4,27-28.5,24.8c-12.8-1.5-19.5-8.7-20.1-21.6
			C418.3,300.8,418.5,296.8,418.5,292.9C418.5,292.9,418.5,292.9,418.5,292.9z"/>
		<path class="st0" d="M412.4,376.4c-0.1,4.9,0.4,10.6-0.9,16.1c-2,8.6-7.2,13.9-15.9,15.7c-3.6,0.7-7.2,1-10.8,0.7
			c-12.9-0.9-20.3-8.3-20.9-21.3c-0.4-8.1,0-16.2-0.2-24.3c0-2.3,0.6-3,3-3.2c11.6-0.6,11.6-0.7,11.6,11c0,4.6-0.1,9.3,0.1,13.9
			c0.2,6.3,3.6,9.4,9.7,9.4c6.2-0.1,9.4-3.2,9.5-9.6c0.1-7.1,0.1-14.2,0-21.3c-0.1-2.6,0.8-3.3,3.3-3.4c11.5-0.4,11.5-0.5,11.5,11.1
			C412.4,372.8,412.4,374.3,412.4,376.4z"/>
		<path class="st0" d="M550.8,393.3c0-4.1-0.3-8.3,0-12.4c0.9-11.9,6.9-18.3,18.6-20.3c5.3-0.9,10.6-0.5,15.7,1
			c6.9,2.1,11.4,6.8,13,13.7c2.4,10.4,1.8,21.2,0.7,31.6c-0.5,4.5-7.3,1-11.1,2c-2.2,0.5-3.2-0.4-3.2-2.9c0.1-6.9,0.1-13.9,0-20.8
			c-0.1-8.2-5.7-12.3-13.5-9.8c-4,1.3-5.6,4.4-5.6,8.4c0,7.1-0.2,14.2,0,21.3c0.1,3-0.8,3.9-3.9,3.9c-10.8,0.1-10.8,0.2-10.8-10.8
			c0-1.7,0-3.3,0-5C550.7,393.3,550.7,393.3,550.8,393.3z"/>
		<path class="st0" d="M675.9,283.4c0-7.3,0.1-14.6-0.1-21.9c-0.1-2.8,0.7-3.6,3.6-3.7c11.1-0.2,11.1-0.3,11.1,10.6
			c0,9.4,0,9.7,9.2,9.3c4.6-0.2,5.4,1.4,5.3,5.5c-0.3,9-0.1,9.2-9.2,8.9c-4-0.1-6,0.8-5.3,5.1c0.2,1.1,0,2.3,0,3.5
			c0.1,8.3,2.3,10.8,10.4,11.2c3.3,0.2,4.1,1.1,4.1,4.3c0,11.3-0.5,11.8-11.8,9.6c-10.8-2.1-16.7-9.2-17.2-21.1
			C675.7,297.6,675.9,290.5,675.9,283.4C675.9,283.4,675.9,283.4,675.9,283.4z"/>
		<path class="st0" d="M640.1,310c0.2-5.4-0.5-11.3,1.1-17.2c2.8-10.5,16.4-18.2,26.4-15c1.3,0.4,1.5,1.1,1.5,2.1c0,3.3,0,6.6,0,9.9
			c0,2.2-1.3,2.2-2.9,2.4c-10.3,1.2-11.5,2.5-11.5,12.7c0,6.1-0.1,12.3,0,18.4c0,2.3-0.6,3.1-3.1,3.2c-11.6,0.7-11.6,0.7-11.6-10.5
			C640.1,314.2,640.1,312.4,640.1,310z"/>
		<path class="st1" d="M619.3,302.1c0,6.6-3.3,10-9.6,9.9c-6.3,0-9.7-3.5-9.6-10c0.1-6.2,3.3-9.6,9.4-9.7
			C615.9,292.2,619.3,295.6,619.3,302.1z"/>
		<path class="st1" d="M529.9,384.6c0,6.5-3.3,9.9-9.7,9.8c-6.3-0.1-9.6-3.6-9.5-10.1c0.1-6.2,3.4-9.5,9.5-9.6
			C526.5,374.7,529.9,378.2,529.9,384.6z"/>
	</g>
</g>
</svg>
